<svg  width="1255.427" height="1235.409" viewBox="0 0 1255.427 1235.409">
  <path id="blob" d="M946,85.534c103.7,56.741,200.317,126.269,224.248,214.177s-25.7,194.2-50.522,298.889-23.932,208.583-63.818,320.467c-39,111.884-118.772,231.759-219.817,238.951-101.931,7.193-226.907-99.1-365.179-143.85C331.76,969.414,178.42,987,117.261,928.657,56.989,870.318,88.9,736.856,54.33,604.194,18.876,470.733-83.942,338.87-78.624,218.995S40.148-7.969,174.874-51.923C309.6-95.079,464.713-75.9,597.667-44.731S841.415,29.592,946,85.534Z" transform="translate(78.822 77.043)" fill="#302c2c"/>
</svg>
