<svg id="Layer_1" data-name="Layer 1" xmlns="http://www.w3.org/2000/svg" viewBox="0 0 300.37 300.37"><defs><style>.cls-1{fill:#fff;}</style></defs><path class="cls-1" d="M228.45,84.64C145.64,84.64,78.26,152,78.26,234.83S145.64,385,228.45,385s150.18-67.38,150.18-150.19S311.26,84.64,228.45,84.64ZM357.72,234.83a128.92,128.92,0,0,1-3.4,29.33l-89.57-15.72-11.2-7,104.11-9.14C357.67,233.14,357.72,234,357.72,234.83Zm-258.54,0A128.85,128.85,0,0,1,102.45,206L186,220.37l12.63,8.28-99.4,8.82C99.23,236.59,99.18,235.72,99.18,234.83ZM102.93,204a128.32,128.32,0,0,1,11.7-30.39l67,43.88Zm118.14-4.33-.39,8.51-59.57-83.63a128.77,128.77,0,0,1,29.06-13.19Zm-28.86-88.88a128.49,128.49,0,0,1,33.24-5.13L221.34,194ZM222.94,205l1.79,5.12-.81,2.6L222.66,211Zm19.11,35.34-3.43.31a12.28,12.28,0,0,0,1.14-2.8Zm-6.52-12a9.1,9.1,0,0,1,2,4.58,7.19,7.19,0,0,1,.06,1.39c0,.32,0,.49,0,.49s0-.17-.07-.48a12,12,0,0,0-.26-1.34,10.29,10.29,0,0,0-.79-1.94,9.58,9.58,0,0,0-1.59-2.13,8.83,8.83,0,0,0-5.8-2.61,8.92,8.92,0,0,0-3.57.53,8.72,8.72,0,0,0-3.1,2,8.63,8.63,0,0,0-2,3.11,9.54,9.54,0,0,0-.46,1.74,8.49,8.49,0,0,0-.08,1.81,8.81,8.81,0,0,0,2.61,5.82,9.4,9.4,0,0,0,2.14,1.59,9.51,9.51,0,0,0,1.93.78,10.11,10.11,0,0,0,1.34.27l.48.06-.49,0a8.17,8.17,0,0,1-1.39-.06,9.08,9.08,0,0,1-4.58-2,9.49,9.49,0,0,1-3.36-6.34,7,7,0,0,1-.05-1,7.13,7.13,0,0,1,.06-1,8.13,8.13,0,0,1,.48-2.1,10.18,10.18,0,0,1,2.29-3.68,10.07,10.07,0,0,1,3.68-2.3,9.56,9.56,0,0,1,10.49,2.88Zm-9.65,8.75a3.56,3.56,0,0,0,2.25.88,3.49,3.49,0,0,0,1.33-.24,3.26,3.26,0,0,0,1.13-.74,3.12,3.12,0,0,0,.74-1.13,3.43,3.43,0,0,0,.19-.63,2.78,2.78,0,0,0,0-.37c0-.08,0-.21,0-.31a3.58,3.58,0,0,0-.88-2.28,3.89,3.89,0,0,0-1.54-1.09,4,4,0,0,0-.75-.23l.21,0a4,4,0,0,1,.6,0,3.8,3.8,0,0,1,2.06.75,4.11,4.11,0,0,1,1.63,2.81c0,.16,0,.29,0,.49a4.44,4.44,0,0,1-.23,1.42,4.28,4.28,0,0,1-2.75,2.75,4.29,4.29,0,0,1-1.89.2,4.09,4.09,0,0,1-2.83-1.63,3.7,3.7,0,0,1-.74-2.07,3.38,3.38,0,0,1,.06-.8,5.46,5.46,0,0,0,.23.74A4.06,4.06,0,0,0,225.88,237.12Zm2.52-14.05a11.65,11.65,0,0,0-5.66,1.46l-.3-.06,2.22-7.07,4.06,5.69ZM216.81,233l-3.34-3.51,4.71-.42A11.56,11.56,0,0,0,216.81,233Zm-1.31,1.69-1.37,1.62-9.24-6.06,5.89-.52Zm1.27,1.77a11,11,0,0,0,.39,1.83l-1.25-.82Zm0,4.11-.18.36-4.68,1.23,2.61-3.06Zm-1.44,2.87-3.09,6.22L200,256.2l9.57-11.26Zm2.72-.72,1.3-.34a11.79,11.79,0,0,0,2.39,2.18l-6.28,3.37Zm9.52,3.87.86,1.28-1.26,4.22-2-5.92A11.81,11.81,0,0,0,227.58,246.55Zm2.38,3.56,2.88,4.32L232.23,267l-3.88-11.49Zm.78-2.63.36-1.22a12.16,12.16,0,0,0,2.18-.74l-.26,5.36Zm6.19-4.58,6.93-.6,2.72,2.95-10.21-1.79C236.56,243.28,236.75,243.1,236.93,242.9Zm9.59-.84,3.54-.31,9.14,5.72L250,245.85Zm-1.81-2-3.68-4,6.05,3.78Zm-5.64-10.18,3.33-6.82,3.54-.78-6.74,7.87C239.16,230.1,239.12,230,239.07,229.92Zm4.51-9.24v0l7.24-4.05-2.61,3.06Zm-3.81,3-2,4.08a12.15,12.15,0,0,0-2.51-2.45l1.88-1.05Zm-14.31-8.8.44-1.42,1.41,4Zm-2.33.37-.78,2.48.15-3.35ZM219.5,226.8l-7.89.7-3.12-3.28,11.21,1.93Zm-10.58.94-6.88.61-10.81-7.08L205,223.63Zm-7.42,2.78,11.25,7.37-4.41,5.18L104.26,270.64a128.86,128.86,0,0,1-5-31ZM206,245.89l-11.08,13-77.66,41.64a128.14,128.14,0,0,1-12.37-27.9Zm-14.82,17.44-53.69,63.2a129.63,129.63,0,0,1-19.15-24.14Zm5.09-2.73,14.4-7.71-46.77,93.84A129.93,129.93,0,0,1,139,328Zm17.62-9.44,9.15-4.91,3.14,9.31-31,104.17a129.18,129.18,0,0,1-29.45-11.94ZM227.31,259,232,272.78l-4.47,91.3a129.35,129.35,0,0,1-30.3-3.82Zm6.48,19.23,27.54,81.59a128.74,128.74,0,0,1-31.73,4.22Zm29.57,81-29.28-86.78.74-15.12,59.29,88.75A128.62,128.62,0,0,1,263.36,359.27ZM295.93,345,235,253.83l.41-8.4,13.54,2.38,71.56,77.66A129.92,129.92,0,0,1,295.93,345Zm26-21.1-69.59-75.53,11.6,2,76.91,48.06A130.1,130.1,0,0,1,322,323.94Zm20-27.26-72.41-45.26,84.33,14.8A128.64,128.64,0,0,1,341.93,296.68Zm-91.35-57.1L240,233l-.06-.39,9.42-11,103.25-22.65a128.48,128.48,0,0,1,5,31.26Zm1.06-20.67,4.52-5.29,82.58-46.15A128.89,128.89,0,0,1,352,196.88Zm8.49-9.92,57.69-67.43a130.33,130.33,0,0,1,19.77,24.13Zm-5.33,3-9.59,5.35,46.43-95.2a130,130,0,0,1,24.65,18ZM242,219.13l-5.59,3.12-4.8,1.06L227,210.08l31.67-100.93a128.35,128.35,0,0,1,31.17,11.92Zm-16.19-12.39-2.59-7.4,4.37-93.76.88,0a129.63,129.63,0,0,1,28.11,3.11Zm-66.46-81.07,61.19,85.91L219.94,224l-13.89-2.38-71.73-75.3A130.2,130.2,0,0,1,159.33,125.67ZM132.86,147.9l69.7,73.16-15.76-2.7-71.13-46.61A129.55,129.55,0,0,1,132.86,147.9Zm235.53,75.74a140.52,140.52,0,0,1-7.57,58.9,140,140,0,0,1-84.66,84.66,140.33,140.33,0,0,1-58.87,7.58,137.69,137.69,0,0,1-53.23-15.62,139.54,139.54,0,0,1-39-30.65,137.21,137.21,0,0,1-22.6-35.16,138.81,138.81,0,0,1-9.59-30.69,142.36,142.36,0,0,1-2.18-20.53c0-4.76,0-7.3,0-7.3s.13,2.53.36,7.28a158.26,158.26,0,0,0,3,20.32,136.46,136.46,0,0,0,10.48,30,137.59,137.59,0,0,0,61.62,62.76A135.9,135.9,0,0,0,348.79,172.51a139.37,139.37,0,0,0-29-38.48A141.18,141.18,0,0,0,286,110.89a136.78,136.78,0,0,0-30-10.47,157.91,157.91,0,0,0-20.31-3l-7.28-.35,7.29,0a142.33,142.33,0,0,1,20.54,2.18A138.41,138.41,0,0,1,368.39,223.64Z" transform="translate(-78.26 -84.64)"/></svg>