<svg xmlns="http://www.w3.org/2000/svg" viewBox="0 0 986.11 1054.55"><defs><style>.cls-1{fill:none;stroke:#fff;stroke-miterlimit:10;stroke-width:5px;}</style></defs><g id="Layer_2" data-name="Layer 2"><g id="Layer_1-2" data-name="Layer 1"><path class="cls-1" d="M980.77,568.23l.5-.28"/><path class="cls-1" d="M981.31,406.22h0c-.19.1-.33.21-.52.31"/><path class="cls-1" d="M2.15,971.14,2.5,971"/><path class="cls-1" d="M980.77,568.23v-.57l.5.29Z"/><polygon class="cls-1" points="280.95 164.91 280.97 163.62 282.08 164.26 280.95 164.91"/><polygon class="cls-1" points="142.19 84.51 142.19 83.51 143.07 84.02 142.19 84.51"/><line class="cls-1" x1="2.5" y1="809.6" x2="2.5" y2="970.96"/><line class="cls-1" x1="2.5" y1="809.6" x2="561.67" y2="486.76"/><polygon class="cls-1" points="280.97 163.62 281.47 5.88 284.71 4.05 422.14 83.38 841.23 325.37 891.25 354.23 980.77 405.93 980.77 567.66 925.99 536.04 841.17 487.07 701.17 406.24 282.08 164.26 280.97 163.62"/><line class="cls-1" x1="281.47" y1="2.16" x2="284.71" y2="4.05"/><polyline class="cls-1" points="981.31 406.22 981.29 406.22 980.77 405.93"/><path class="cls-1" d="M142.19,84.51l.88-.49L281.47,5.88,281,163.62l0,1.29L142.56,244.8l-.43-.25C142.11,193.57,142.13,133.61,142.19,84.51Z"/><path class="cls-1" d="M142.19,83.51v1"/><path class="cls-1" d="M142.13,245.07a2.26,2.26,0,0,1,0-.52"/><path class="cls-1" d="M2.5,971,701.62,567.58l-140-80.82L280.46,324.42,142.56,244.8,281,164.91l1.13-.65,419.09,242,140,80.83L926,536l54.78,31.62v.57L937,593.48Q889.26,621,841.6,648.41q-350,201.6-700,403.26L2.5,971.35Z"/><line class="cls-1" x1="2.15" y1="971.14" x2="2.5" y2="971.35"/><line class="cls-1" x1="142.13" y1="245.07" x2="142.56" y2="244.8"/><line class="cls-1" x1="281.47" y1="2.16" x2="281.47" y2="5.88"/></g></g></svg>