<svg xmlns="http://www.w3.org/2000/svg" viewBox="0 0 986.11 1054.55"><defs><style>.cls-1{fill:none;stroke:#fff;stroke-miterlimit:10;stroke-width:5px;}</style></defs><g id="Layer_2" data-name="Layer 2"><g id="Layer_1-2" data-name="Layer 1"><path class="cls-1" d="M5.33,486.32c-.16.1-.33.18-.49.29"/><path class="cls-1" d="M4.8,648.33h0l.51-.31"/><path class="cls-1" d="M984,83.41a3.9,3.9,0,0,0-.35.19"/><path class="cls-1" d="M5.33,486.32v.57l-.49-.28C5,486.5,5.17,486.42,5.33,486.32Z"/><polygon class="cls-1" points="705.15 889.64 705.13 890.93 704.02 890.29 705.15 889.64"/><polygon class="cls-1" points="843.92 970.04 843.92 971.04 843.03 970.53 843.92 970.04"/><line class="cls-1" x1="983.61" y1="244.95" x2="983.61" y2="83.6"/><line class="cls-1" x1="983.61" y1="244.95" x2="424.44" y2="567.79"/><polygon class="cls-1" points="705.13 890.93 704.64 1048.67 701.39 1050.5 563.96 971.17 144.88 729.18 94.86 700.32 5.33 648.62 5.33 486.89 60.12 518.51 144.94 567.48 284.94 648.31 704.02 890.29 705.13 890.93"/><line class="cls-1" x1="704.64" y1="1052.39" x2="701.39" y2="1050.5"/><polyline class="cls-1" points="4.8 648.33 4.82 648.33 5.33 648.62"/><path class="cls-1" d="M843.92,970l-.89.49-138.39,78.14.49-157.74,0-1.29,138.4-79.89.43.25C844,861,844,921,843.92,970Z"/><path class="cls-1" d="M843.92,971.05v-1"/><path class="cls-1" d="M844,809.48a2.26,2.26,0,0,1,0,.52"/><path class="cls-1" d="M983.61,83.6Q634.05,285.26,284.48,487l140,80.81L705.65,730.13l137.9,79.62-138.4,79.89-1.13.66-419.08-242-140-80.83-84.82-49L5.33,486.89v-.57q21.93-12.61,43.83-25.25,47.67-27.46,95.35-54.93,350-201.6,700-403.25L983.61,83.2Z"/><line class="cls-1" x1="983.96" y1="83.41" x2="983.61" y2="83.2"/><line class="cls-1" x1="843.98" y1="809.48" x2="843.55" y2="809.75"/><line class="cls-1" x1="704.64" y1="1052.39" x2="704.64" y2="1048.67"/></g></g></svg>