<svg xmlns="http://www.w3.org/2000/svg" xmlns:xlink="http://www.w3.org/1999/xlink" viewBox="0 0 983.28 1053.37"><defs><style>.cls-1,.cls-2,.cls-3,.cls-4{stroke:#fff;stroke-miterlimit:10;stroke-width:5px;}.cls-1{fill:url(#linear-gradient);}.cls-2{fill:url(#linear-gradient-2);}.cls-3{fill:url(#linear-gradient-3);}.cls-4{fill:url(#linear-gradient-4);}</style><linearGradient id="linear-gradient" x1="2.5" y1="727.68" x2="701.62" y2="727.68" gradientUnits="userSpaceOnUse"><stop offset="0" stop-color="#9d2df2"/><stop offset="1" stop-color="#4a00aa"/></linearGradient><linearGradient id="linear-gradient-2" x1="280.97" y1="284.68" x2="980.78" y2="284.68" gradientUnits="userSpaceOnUse"><stop offset="0" stop-color="#6a41f8"/><stop offset="0.28" stop-color="#733df7"/><stop offset="0.75" stop-color="#8d33f4"/><stop offset="0.99" stop-color="#9d2df2"/></linearGradient><linearGradient id="linear-gradient-3" x1="142.12" y1="124.17" x2="281.47" y2="124.17" xlink:href="#linear-gradient-2"/><linearGradient id="linear-gradient-4" x1="2.5" y1="606.78" x2="980.78" y2="606.78" xlink:href="#linear-gradient-2"/></defs><g id="Layer_2" data-name="Layer 2"><g id="Layer_1-2" data-name="Layer 1"><path class="cls-1" d="M701.62,566.4Q352.06,768.11,2.5,969.78V808.42L561.67,485.59Z"/><polygon class="cls-2" points="980.78 404.76 980.78 566.48 925.99 534.86 841.17 485.9 701.17 405.06 282.08 163.08 280.97 162.44 281.47 4.71 284.72 2.88 422.14 82.21 841.23 324.19 891.25 353.05 980.78 404.76"/><path class="cls-3" d="M281.47,4.71,281,162.44l0,1.3L142.56,243.63l-.43-.25c0-51,0-110.95.06-160l.89-.5Z"/><path class="cls-4" d="M980.78,566.48v.58L937,592.3,841.6,647.23q-350,201.62-700,403.26L2.5,970.17v-.39Q352.06,768.11,701.62,566.4l-140-80.81L280.46,323.25l-137.9-79.62L281,163.74l1.13-.66,419.09,242,140,80.84,84.82,49Z"/></g></g></svg>