<svg xmlns="http://www.w3.org/2000/svg" xmlns:xlink="http://www.w3.org/1999/xlink" viewBox="0 0 983.28 1053.37"><defs><style>.cls-1,.cls-2,.cls-3,.cls-4{stroke:#fff;stroke-miterlimit:10;stroke-width:5px;}.cls-1{fill:url(#linear-gradient);}.cls-2{fill:url(#linear-gradient-2);}.cls-3{fill:url(#linear-gradient-3);}.cls-4{fill:url(#linear-gradient-4);}</style><linearGradient id="linear-gradient" x1="281.66" y1="325.69" x2="980.78" y2="325.69" gradientUnits="userSpaceOnUse"><stop offset="0.05" stop-color="#4a00aa"/><stop offset="0.24" stop-color="#5305b2"/><stop offset="0.55" stop-color="#6d13c8"/><stop offset="0.94" stop-color="#9629ec"/><stop offset="1" stop-color="#9d2df2"/></linearGradient><linearGradient id="linear-gradient-2" x1="2.5" y1="768.7" x2="702.31" y2="768.7" gradientUnits="userSpaceOnUse"><stop offset="0" stop-color="#6a41f8"/><stop offset="0.28" stop-color="#733df7"/><stop offset="0.75" stop-color="#8d33f4"/><stop offset="0.99" stop-color="#9d2df2"/></linearGradient><linearGradient id="linear-gradient-3" x1="701.81" y1="929.21" x2="841.16" y2="929.21" xlink:href="#linear-gradient-2"/><linearGradient id="linear-gradient-4" y1="446.59" x2="980.78" y2="446.59" xlink:href="#linear-gradient-2"/></defs><g id="Layer_2" data-name="Layer 2"><g id="Layer_1-2" data-name="Layer 1"><path class="cls-1" d="M980.78,83.6V245L421.61,567.79,281.66,487Q631.22,285.27,980.78,83.6Z"/><polygon class="cls-2" points="702.31 890.93 701.81 1048.67 698.56 1050.5 561.14 971.17 142.05 729.19 92.03 700.32 2.5 648.62 2.5 486.9 57.29 518.51 142.11 567.48 282.11 648.31 701.2 890.3 702.31 890.93"/><path class="cls-3" d="M841.09,970l-.89.49-138.39,78.14.5-157.74,0-1.29,138.39-79.89.43.25C841.17,861,841.15,921,841.09,970Z"/><path class="cls-4" d="M980.78,83.6Q631.22,285.26,281.66,487l140,80.81L702.82,730.13l137.9,79.62L702.33,889.64l-1.13.66-419.09-242-140-80.83-84.82-49L2.5,486.9v-.58q21.93-12.61,43.83-25.25Q94,433.61,141.68,406.14q350-201.6,700-403.25L980.78,83.21Z"/></g></g></svg>