<svg xmlns="http://www.w3.org/2000/svg" xmlns:xlink="http://www.w3.org/1999/xlink" viewBox="0 0 1120.7 830.1"><defs><style>.cls-1{fill:url(#Áåçûìÿííûé_ãðàäèåíò_33);}.cls-2{fill:url(#Áåçûìÿííûé_ãðàäèåíò_33-2);}.cls-3{fill:url(#Áåçûìÿííûé_ãðàäèåíò_33-3);}.cls-4{fill:#020230;opacity:0.6;}.cls-5{fill:url(#Áåçûìÿííûé_ãðàäèåíò_33-4);}.cls-6{fill:url(#Áåçûìÿííûé_ãðàäèåíò_113);}.cls-7{fill:url(#Áåçûìÿííûé_ãðàäèåíò_109);}.cls-8{fill:url(#Áåçûìÿííûé_ãðàäèåíò_343);}.cls-29,.cls-9{fill:#fff;}.cls-10,.cls-14{opacity:0.4;}.cls-11,.cls-14,.cls-15{fill:#06033e;}.cls-12{fill:url(#Áåçûìÿííûé_ãðàäèåíò_343-2);}.cls-13{fill:url(#Áåçûìÿííûé_ãðàäèåíò_441);}.cls-15,.cls-17,.cls-29{opacity:0.5;}.cls-16{fill:url(#Áåçûìÿííûé_ãðàäèåíò_343-3);}.cls-18{fill:#e8975b;}.cls-19{fill:#f8359e;}.cls-20{fill:url(#Áåçûìÿííûé_ãðàäèåíò_33-5);}.cls-21{fill:url(#Áåçûìÿííûé_ãðàäèåíò_199);}.cls-22{fill:url(#Áåçûìÿííûé_ãðàäèåíò_144);}.cls-23{fill:url(#Áåçûìÿííûé_ãðàäèåíò_483);}.cls-24{fill:url(#Áåçûìÿííûé_ãðàäèåíò_483-2);}.cls-25{fill:url(#Áåçûìÿííûé_ãðàäèåíò_193);}.cls-26{fill:url(#Áåçûìÿííûé_ãðàäèåíò_223);}.cls-27{fill:#0c0a78;}.cls-28{fill:url(#Áåçûìÿííûé_ãðàäèåíò_193-2);}</style><linearGradient id="Áåçûìÿííûé_ãðàäèåíò_33" x1="1037.35" y1="688.46" x2="1120.7" y2="688.46" gradientUnits="userSpaceOnUse"><stop offset="0" stop-color="#e39a65"/><stop offset="1" stop-color="#e95f8d"/></linearGradient><linearGradient id="Áåçûìÿííûé_ãðàäèåíò_33-2" x1="923.23" y1="574.23" x2="1063.23" y2="574.23" xlink:href="#Áåçûìÿííûé_ãðàäèåíò_33"/><linearGradient id="Áåçûìÿííûé_ãðàäèåíò_33-3" x1="0" y1="621.14" x2="140" y2="621.14" xlink:href="#Áåçûìÿííûé_ãðàäèåíò_33"/><linearGradient id="Áåçûìÿííûé_ãðàäèåíò_33-4" x1="163" y1="612.16" x2="910.22" y2="612.16" xlink:href="#Áåçûìÿííûé_ãðàäèåíò_33"/><radialGradient id="Áåçûìÿííûé_ãðàäèåíò_113" cx="575.73" cy="58.94" r="570.71" gradientUnits="userSpaceOnUse"><stop offset="0" stop-color="#e39a65"/><stop offset="0.47" stop-color="#a92ffb"/><stop offset="0.59" stop-color="#891cfb"/><stop offset="0.74" stop-color="#6507fa"/><stop offset="0.8" stop-color="#0d0c6f"/></radialGradient><radialGradient id="Áåçûìÿííûé_ãðàäèåíò_109" cx="226.67" cy="517.26" r="624.06" gradientUnits="userSpaceOnUse"><stop offset="0" stop-color="#e39a65"/><stop offset="0.47" stop-color="#a92ffb"/><stop offset="0.57" stop-color="#891cfb"/><stop offset="0.68" stop-color="#6507fa"/><stop offset="0.74" stop-color="#0d0c6f"/></radialGradient><radialGradient id="Áåçûìÿííûé_ãðàäèåíò_343" cx="284.07" cy="392" r="559.63" gradientUnits="userSpaceOnUse"><stop offset="0" stop-color="#e39a65"/><stop offset="0.47" stop-color="#a92ffb"/><stop offset="0.59" stop-color="#891cfb"/><stop offset="0.73" stop-color="#6507fa"/><stop offset="1" stop-color="#3919bb"/></radialGradient><radialGradient id="Áåçûìÿííûé_ãðàäèåíò_343-2" cx="423.48" cy="177.98" r="570.82" xlink:href="#Áåçûìÿííûé_ãðàäèåíò_343"/><linearGradient id="Áåçûìÿííûé_ãðàäèåíò_441" x1="486.22" y1="327.82" x2="943.63" y2="327.82" gradientUnits="userSpaceOnUse"><stop offset="0" stop-color="#3919bb"/><stop offset="1" stop-color="#6507fa"/></linearGradient><radialGradient id="Áåçûìÿííûé_ãðàäèåíò_343-3" cx="215.1" cy="56.09" r="889.04" xlink:href="#Áåçûìÿííûé_ãðàäèåíò_343"/><linearGradient id="Áåçûìÿííûé_ãðàäèåíò_33-5" x1="174.37" y1="390.39" x2="370.6" y2="390.39" xlink:href="#Áåçûìÿííûé_ãðàäèåíò_33"/><radialGradient id="Áåçûìÿííûé_ãðàäèåíò_199" cx="191.77" cy="230.33" r="422.6" gradientUnits="userSpaceOnUse"><stop offset="0" stop-color="#e39a65"/><stop offset="0.15" stop-color="#a92ffb"/><stop offset="0.41" stop-color="#3919bb"/><stop offset="0.93" stop-color="#3919bb"/></radialGradient><linearGradient id="Áåçûìÿííûé_ãðàäèåíò_144" x1="199.25" y1="177.98" x2="350.83" y2="177.98" gradientUnits="userSpaceOnUse"><stop offset="0" stop-color="#e39a65"/><stop offset="0.25" stop-color="#a92ffb"/><stop offset="0.56" stop-color="#3919bb"/></linearGradient><linearGradient id="Áåçûìÿííûé_ãðàäèåíò_483" x1="213.46" y1="170.28" x2="336.61" y2="170.28" gradientUnits="userSpaceOnUse"><stop offset="0" stop-color="#4f1fec"/><stop offset="1" stop-color="#a92ffb"/></linearGradient><linearGradient id="Áåçûìÿííûé_ãðàäèåíò_483-2" x1="210.54" y1="170.28" x2="333.69" y2="170.28" xlink:href="#Áåçûìÿííûé_ãðàäèåíò_483"/><linearGradient id="Áåçûìÿííûé_ãðàäèåíò_193" x1="213.47" y1="154.05" x2="368.74" y2="154.05" gradientUnits="userSpaceOnUse"><stop offset="0" stop-color="#131060"/><stop offset="0.19" stop-color="#141062"/><stop offset="0.28" stop-color="#19106a"/><stop offset="0.36" stop-color="#221078"/><stop offset="0.42" stop-color="#2e0f8b"/><stop offset="0.48" stop-color="#3e0fa3"/><stop offset="0.54" stop-color="#510ec2"/><stop offset="0.58" stop-color="#680de5"/><stop offset="0.61" stop-color="#740df8"/><stop offset="0.62" stop-color="#7a14f0"/><stop offset="0.68" stop-color="#9b3cc3"/><stop offset="0.75" stop-color="#b75d9d"/><stop offset="0.81" stop-color="#cc7680"/><stop offset="0.88" stop-color="#dc886c"/><stop offset="0.94" stop-color="#e5935f"/><stop offset="1" stop-color="#e8975b"/></linearGradient><radialGradient id="Áåçûìÿííûé_ãðàäèåíò_223" cx="180.33" cy="135.09" r="276.45" gradientUnits="userSpaceOnUse"><stop offset="0" stop-color="#e39a65"/><stop offset="0.25" stop-color="#a92ffb"/><stop offset="0.74" stop-color="#3919bb"/></radialGradient><linearGradient id="Áåçûìÿííûé_ãðàäèåíò_193-2" x1="265.29" y1="204.16" x2="286.77" y2="204.16" xlink:href="#Áåçûìÿííûé_ãðàäèåíò_193"/></defs><g id="Layer_2" data-name="Layer 2"><g id="Ñëîé_1" data-name="Ñëîé 1"><path class="cls-1" d="M1079,713a17.75,17.75,0,0,1-8.9-2.38l-30-17.32a5.55,5.55,0,0,1,0-9.62l30-17.32a17.85,17.85,0,0,1,17.8,0l30,17.32a5.55,5.55,0,0,1,0,9.62l-30,17.32A17.73,17.73,0,0,1,1079,713Zm0-44.26a13,13,0,0,0-6.52,1.74l-30,17.32a.8.8,0,0,0,0,1.38l30,17.32h0a13.09,13.09,0,0,0,13,0l30-17.32a.8.8,0,0,0,0-1.38l-30-17.32A13.06,13.06,0,0,0,1079,668.71Z"/><path class="cls-2" d="M993.23,614.7a28.87,28.87,0,0,1-14.46-3.87L927.15,581a7.85,7.85,0,0,1,0-13.59l51.62-29.8a29,29,0,0,1,28.91,0l51.63,29.8a7.85,7.85,0,0,1,0,13.59l-51.63,29.8A28.81,28.81,0,0,1,993.23,614.7Zm-12.08-8a24.29,24.29,0,0,0,24.16,0l51.62-29.81a3.09,3.09,0,0,0,0-5.35l-51.63-29.81a24.27,24.27,0,0,0-24.15,0l-51.62,29.81a3.08,3.08,0,0,0,0,5.35Z"/><path class="cls-3" d="M70,661.6a28.82,28.82,0,0,1-14.45-3.86L3.92,627.94a7.85,7.85,0,0,1,0-13.59l51.63-29.81a29,29,0,0,1,28.9,0l51.63,29.81a7.85,7.85,0,0,1,0,13.59l-51.62,29.8A29,29,0,0,1,70,661.6Zm0-76.16a24.19,24.19,0,0,0-12.08,3.22L6.3,618.46a3.1,3.1,0,0,0,0,5.36l51.63,29.8h0a24.22,24.22,0,0,0,24.15,0l51.62-29.8a3.08,3.08,0,0,0,0-5.35L82.08,588.66A24.16,24.16,0,0,0,70,585.44Z"/><path class="cls-4" d="M592.79,791.63,223.65,578.5c-5.38-3.1-4.71-8.53,1.5-12.12L462.07,429.6c6.22-3.59,15.61-4,21-.87L852.2,641.85c5.38,3.11,4.71,8.54-1.5,12.12L613.78,790.76C607.57,794.34,598.17,794.73,592.79,791.63Z"/><path class="cls-5" d="M601.24,830.1a23.53,23.53,0,0,1-11.61-2.72h0L168.33,584.15c-3.44-2-5.33-4.85-5.33-8.07,0-3.69,2.57-7.3,7.05-9.89L457.23,397.94c7.88-4.55,19.45-5,26.35-1l421.3,243.24c3.44,2,5.34,4.85,5.34,8.06,0,3.69-2.57,7.3-7.06,9.88L616,826.38A30.11,30.11,0,0,1,601.24,830.1ZM472,399a25.56,25.56,0,0,0-12.39,3.06L172.44,570.31c-2.94,1.7-4.69,3.85-4.69,5.77s1.61,3.17,3,3.95L592,823.26h0c5.38,3.11,15.26,2.66,21.57-1L900.77,654c2.94-1.7,4.69-3.85,4.69-5.77s-1.61-3.17-3-4L481.21,401.06A18.83,18.83,0,0,0,472,399Z"/><path class="cls-6" d="M950.27,284.55,582.58,72.27a9.52,9.52,0,0,0-7.5-1.08h0l-6.81,2.37,2.4.57a11.8,11.8,0,0,0-2.24,4.2l-83.16,270c-2.05,6.7,1,14.83,6.74,18.17L859.66,578.77a10.92,10.92,0,0,0,2.71,1.11l-.91,2,6.5-2.28h0a10.39,10.39,0,0,0,5.92-6.88l83.15-270C959.07,296,956.05,287.89,950.27,284.55Z"/><path class="cls-7" d="M846.5,588.85l.13.16L483.45,379.33c-5.34-3.09-14.67-2.7-20.84.86L228,515.66l-7.83-3,2.2,11h0a6.55,6.55,0,0,0,3.52,4.39L592.4,739.66c5.34,3.09,14.68,2.7,20.84-.86L848.49,603c2.9-1.68,4.57-3.76,5-5.81v0l2.24-10.69Z"/><path class="cls-8" d="M592.79,730,223.65,516.88c-5.38-3.1-4.71-8.53,1.5-12.12L462.07,368c6.22-3.59,15.61-4,21-.87L852.2,580.23c5.38,3.11,4.71,8.53-1.5,12.12L613.78,729.14C607.57,732.72,598.17,733.11,592.79,730Z"/><path class="cls-9" d="M850.7,589.48,613.78,726.26c-6.21,3.59-15.61,4-21,.87L223.65,514a6.9,6.9,0,0,1-3.36-3.83c-.71,2.47.33,5,3.36,6.7L592.79,730c5.38,3.1,14.78,2.71,21-.87L850.7,592.35c4.09-2.36,5.73-5.52,4.86-8.29C855,586,853.42,587.91,850.7,589.48Z"/><g class="cls-10"><path class="cls-11" d="M399.72,482.3l-12.46-7.2c-1-.58-.87-1.59.28-2.25l14.71-8.5a4.35,4.35,0,0,1,3.9-.16l12.47,7.2c1,.58.87,1.58-.28,2.25l-14.71,8.49A4.37,4.37,0,0,1,399.72,482.3Z"/><path class="cls-11" d="M419,493.41l-12.46-7.2c-1-.57-.88-1.58.28-2.25l14.71-8.49a4.35,4.35,0,0,1,3.9-.17l12.46,7.2c1,.58.88,1.59-.28,2.25l-14.71,8.5A4.35,4.35,0,0,1,419,493.41Z"/><path class="cls-11" d="M438.22,504.52l-12.47-7.2c-1-.57-.87-1.58.28-2.25l14.71-8.49a4.34,4.34,0,0,1,3.91-.16l12.46,7.19c1,.58.87,1.59-.28,2.26l-14.71,8.49A4.31,4.31,0,0,1,438.22,504.52Z"/><path class="cls-11" d="M464.83,495.34l-12.46-7.19c-1-.58-.87-1.59.28-2.26L465,478.76a4.38,4.38,0,0,1,3.9-.16l12.47,7.2c1,.58.87,1.59-.28,2.25l-12.35,7.13A4.34,4.34,0,0,1,464.83,495.34Z"/><path class="cls-11" d="M484.08,506.45l-12.46-7.19c-1-.58-.88-1.59.28-2.25l12.35-7.13a4.35,4.35,0,0,1,3.9-.17l12.46,7.2c1,.58.88,1.59-.28,2.25L488,506.29A4.31,4.31,0,0,1,484.08,506.45Z"/><path class="cls-11" d="M503.33,517.57l-12.47-7.2c-1-.58-.87-1.59.28-2.25L503.49,501a4.34,4.34,0,0,1,3.91-.16L519.86,508c1,.58.87,1.59-.28,2.26l-12.35,7.12A4.35,4.35,0,0,1,503.33,517.57Z"/><path class="cls-11" d="M522.57,528.68l-12.46-7.2c-1-.57-.88-1.58.28-2.25l12.35-7.13a4.31,4.31,0,0,1,3.9-.16l12.46,7.19c1,.58.88,1.59-.28,2.26l-12.34,7.13A4.37,4.37,0,0,1,522.57,528.68Z"/><path class="cls-11" d="M541.82,539.79l-12.46-7.2c-1-.57-.88-1.58.28-2.25L542,523.21a4.34,4.34,0,0,1,3.91-.16l12.46,7.2c1,.57.88,1.58-.28,2.25l-12.35,7.13A4.31,4.31,0,0,1,541.82,539.79Z"/><path class="cls-11" d="M561.06,550.9l-12.46-7.19c-1-.58-.87-1.59.28-2.26l12.35-7.13a4.35,4.35,0,0,1,3.9-.16l12.47,7.2c1,.57.87,1.58-.28,2.25L565,550.74A4.34,4.34,0,0,1,561.06,550.9Z"/><path class="cls-11" d="M580.31,562l-12.46-7.19c-1-.58-.88-1.59.28-2.26l12.35-7.12a4.35,4.35,0,0,1,3.9-.17l12.46,7.2c1,.58.88,1.59-.28,2.25l-12.35,7.13A4.31,4.31,0,0,1,580.31,562Z"/><path class="cls-11" d="M599.56,573.13l-12.47-7.2c-1-.58-.87-1.59.28-2.25l12.35-7.13a4.34,4.34,0,0,1,3.91-.16l12.46,7.19c1,.58.87,1.59-.28,2.25L603.46,573A4.35,4.35,0,0,1,599.56,573.13Z"/><path class="cls-11" d="M618.8,584.24,606.34,577c-1-.58-.88-1.59.28-2.25L619,567.66a4.31,4.31,0,0,1,3.9-.16l12.47,7.19c1,.58.87,1.59-.29,2.26l-12.34,7.13A4.4,4.4,0,0,1,618.8,584.24Z"/><path class="cls-11" d="M638.05,595.35l-12.46-7.2c-1-.57-.88-1.58.28-2.25l12.34-7.13a4.34,4.34,0,0,1,3.91-.16l12.46,7.19c1,.58.88,1.59-.28,2.26L642,595.19A4.35,4.35,0,0,1,638.05,595.35Z"/><path class="cls-11" d="M493.19,490.08l-12.46-7.19c-1-.58-.88-1.59.28-2.26l12.35-7.13a4.35,4.35,0,0,1,3.9-.16l12.46,7.2c1,.58.88,1.58-.28,2.25l-12.34,7.13A4.34,4.34,0,0,1,493.19,490.08Z"/><path class="cls-11" d="M473.66,478.8l-12.46-7.19c-1-.58-.88-1.59.28-2.25l12.34-7.13a4.37,4.37,0,0,1,3.91-.17l12.46,7.2c1,.58.88,1.59-.28,2.25l-12.35,7.13A4.31,4.31,0,0,1,473.66,478.8Z"/><path class="cls-11" d="M454.09,467.51,427.25,452c-1-.58-.87-1.58.28-2.25l12.35-7.13a4.31,4.31,0,0,1,3.9-.16L470.63,458c1,.58.87,1.59-.28,2.26L458,467.35A4.37,4.37,0,0,1,454.09,467.51Z"/><path class="cls-11" d="M467.77,453.77,446,441.2c-1-.58-.88-1.59.28-2.26l12.35-7.13a4.31,4.31,0,0,1,3.9-.16l21.78,12.58c1,.57.88,1.58-.28,2.25l-12.35,7.13A4.31,4.31,0,0,1,467.77,453.77Z"/><path class="cls-11" d="M512.44,501.19,500,494c-1-.58-.87-1.59.29-2.25l12.34-7.13a4.37,4.37,0,0,1,3.91-.17l12.46,7.2c1,.58.88,1.59-.28,2.25L516.34,501A4.31,4.31,0,0,1,512.44,501.19Z"/><path class="cls-11" d="M531.68,512.31l-12.46-7.2c-1-.58-.87-1.59.28-2.25l12.35-7.13a4.31,4.31,0,0,1,3.9-.16l12.47,7.19c1,.58.87,1.59-.28,2.25l-12.35,7.13A4.37,4.37,0,0,1,531.68,512.31Z"/><path class="cls-11" d="M550.93,523.42l-12.46-7.2c-1-.58-.88-1.58.28-2.25l12.35-7.13a4.31,4.31,0,0,1,3.9-.16l12.46,7.19c1,.58.88,1.59-.28,2.26l-12.35,7.13A4.35,4.35,0,0,1,550.93,523.42Z"/><path class="cls-11" d="M570.18,534.53l-12.47-7.2c-1-.57-.87-1.58.28-2.25L570.34,518a4.34,4.34,0,0,1,3.91-.16L586.71,525c1,.58.87,1.59-.28,2.26l-12.35,7.13A4.35,4.35,0,0,1,570.18,534.53Z"/><path class="cls-11" d="M589.42,545.64,577,538.45c-1-.58-.88-1.59.28-2.26l12.35-7.13a4.35,4.35,0,0,1,3.9-.16L606,536.1c1,.57.88,1.58-.28,2.25l-12.34,7.13A4.34,4.34,0,0,1,589.42,545.64Z"/><path class="cls-11" d="M608.67,556.75l-12.46-7.19c-1-.58-.88-1.59.28-2.26l12.34-7.13a4.37,4.37,0,0,1,3.91-.16l12.46,7.2c1,.58.88,1.58-.28,2.25l-12.35,7.13A4.31,4.31,0,0,1,608.67,556.75Z"/><path class="cls-11" d="M627.91,567.86l-12.46-7.19c-1-.58-.87-1.59.28-2.25l12.35-7.13a4.35,4.35,0,0,1,3.9-.17l12.47,7.2c1,.58.87,1.59-.28,2.25l-12.35,7.13A4.34,4.34,0,0,1,627.91,567.86Z"/><path class="cls-11" d="M647.16,579l-12.46-7.2c-1-.58-.88-1.59.28-2.25l12.35-7.13a4.31,4.31,0,0,1,3.9-.16l12.46,7.19c1,.58.88,1.59-.28,2.26l-12.35,7.12A4.35,4.35,0,0,1,647.16,579Z"/><path class="cls-11" d="M666.41,590.09l-12.47-7.2c-1-.57-.87-1.58.28-2.25l12.35-7.13a4.34,4.34,0,0,1,3.91-.16l12.46,7.19c1,.58.87,1.59-.28,2.26l-12.35,7.13A4.35,4.35,0,0,1,666.41,590.09Z"/><path class="cls-11" d="M700.62,609.84l-27.19-15.7c-1-.57-.88-1.58.28-2.25l12.35-7.13a4.31,4.31,0,0,1,3.9-.16l27.19,15.7c1,.58.88,1.58-.28,2.25l-12.34,7.13A4.34,4.34,0,0,1,700.62,609.84Z"/><path class="cls-11" d="M738.09,588.21l-23-13.25c-1-.58-.88-1.59.28-2.26l12.35-7.13a4.38,4.38,0,0,1,3.9-.16l23,13.25c1,.58.88,1.59-.28,2.26L742,588.05A4.37,4.37,0,0,1,738.09,588.21Z"/><path class="cls-11" d="M546.14,499l-12.46-7.2c-1-.57-.88-1.58.28-2.25l12.35-7.13a4.31,4.31,0,0,1,3.9-.16l12.46,7.19c1,.58.88,1.59-.28,2.26l-12.34,7.13A4.34,4.34,0,0,1,546.14,499Z"/><path class="cls-11" d="M526.42,487.63,514,480.44c-1-.58-.87-1.59.28-2.26l12.35-7.13a4.37,4.37,0,0,1,3.91-.16l12.46,7.2c1,.57.87,1.58-.28,2.25l-12.35,7.13A4.31,4.31,0,0,1,526.42,487.63Z"/><path class="cls-11" d="M506.69,476.24l-12.46-7.19c-1-.58-.88-1.59.28-2.26l12.35-7.12a4.35,4.35,0,0,1,3.9-.17l12.46,7.2c1,.58.88,1.59-.28,2.25l-12.34,7.13A4.34,4.34,0,0,1,506.69,476.24Z"/><path class="cls-11" d="M487,464.86l-12.47-7.2c-1-.58-.87-1.59.28-2.25l12.35-7.13a4.34,4.34,0,0,1,3.91-.16l12.46,7.19c1,.58.87,1.59-.28,2.25l-12.35,7.13A4.35,4.35,0,0,1,487,464.86Z"/><path class="cls-11" d="M565.39,510.13l-12.46-7.19c-1-.58-.88-1.59.28-2.26l12.34-7.13a4.37,4.37,0,0,1,3.91-.16l12.46,7.2c1,.57.88,1.58-.28,2.25L569.29,510A4.31,4.31,0,0,1,565.39,510.13Z"/><path class="cls-11" d="M584.63,521.24l-12.46-7.19c-1-.58-.87-1.59.28-2.26l12.35-7.12a4.35,4.35,0,0,1,3.9-.17l12.47,7.2c1,.58.87,1.59-.28,2.25l-12.35,7.13A4.34,4.34,0,0,1,584.63,521.24Z"/><path class="cls-11" d="M603.88,532.36l-12.46-7.2c-1-.58-.88-1.59.28-2.25l12.35-7.13a4.35,4.35,0,0,1,3.9-.17l12.46,7.2c1,.58.88,1.59-.28,2.25l-12.35,7.13A4.35,4.35,0,0,1,603.88,532.36Z"/><path class="cls-11" d="M623.13,543.47l-12.47-7.2c-1-.58-.87-1.58.28-2.25l12.35-7.13a4.34,4.34,0,0,1,3.91-.16l12.46,7.19c1,.58.87,1.59-.28,2.26L627,543.31A4.38,4.38,0,0,1,623.13,543.47Z"/><path class="cls-11" d="M642.37,554.58l-12.46-7.2c-1-.57-.88-1.58.28-2.25L642.54,538a4.31,4.31,0,0,1,3.9-.16L658.91,545c1,.58.87,1.59-.29,2.26l-12.34,7.13A4.37,4.37,0,0,1,642.37,554.58Z"/><path class="cls-11" d="M661.62,565.69l-12.46-7.19c-1-.58-.88-1.59.28-2.26l12.34-7.13a4.34,4.34,0,0,1,3.91-.16l12.46,7.2c1,.57.88,1.58-.28,2.25l-12.35,7.13A4.31,4.31,0,0,1,661.62,565.69Z"/><path class="cls-11" d="M680.86,576.8l-12.46-7.19c-1-.58-.87-1.59.28-2.26L681,560.22a4.35,4.35,0,0,1,3.9-.16l12.47,7.2c1,.58.87,1.58-.28,2.25l-12.35,7.13A4.33,4.33,0,0,1,680.86,576.8Z"/><path class="cls-11" d="M700.11,587.91l-12.46-7.19c-1-.58-.88-1.59.28-2.26l12.35-7.12a4.35,4.35,0,0,1,3.9-.17l12.46,7.2c1,.58.88,1.59-.28,2.25L704,587.75A4.31,4.31,0,0,1,700.11,587.91Z"/><path class="cls-11" d="M719.36,599l-12.47-7.2c-1-.58-.87-1.59.28-2.25l12.35-7.13a4.34,4.34,0,0,1,3.91-.16l12.46,7.19c1,.58.87,1.59-.28,2.25l-12.35,7.13A4.35,4.35,0,0,1,719.36,599Z"/><path class="cls-11" d="M536,471.54l-12.47-7.2c-1-.58-.87-1.59.29-2.25L536.17,455a4.34,4.34,0,0,1,3.91-.16L552.54,462c1,.58.88,1.59-.28,2.25l-12.35,7.13A4.35,4.35,0,0,1,536,471.54Z"/><path class="cls-11" d="M516.86,460.48l-12.47-7.2c-1-.57-.87-1.58.28-2.25L517,443.9a4.34,4.34,0,0,1,3.91-.16l12.46,7.19c1,.58.87,1.59-.28,2.26l-12.35,7.13A4.35,4.35,0,0,1,516.86,460.48Z"/><path class="cls-11" d="M497.71,449.42l-12.47-7.19c-1-.58-.87-1.59.28-2.26l12.35-7.13a4.37,4.37,0,0,1,3.91-.16l12.46,7.2c1,.58.87,1.58-.28,2.25l-12.35,7.13A4.31,4.31,0,0,1,497.71,449.42Z"/><path class="cls-11" d="M478.56,438.37l-12.47-7.2c-1-.58-.87-1.59.28-2.25l12.35-7.13a4.34,4.34,0,0,1,3.91-.16l12.46,7.19c1,.58.87,1.59-.28,2.26l-12.35,7.12A4.35,4.35,0,0,1,478.56,438.37Z"/><path class="cls-11" d="M498.25,427l-12.46-7.2c-1-.58-.88-1.59.28-2.25l4.08-2.36a4.31,4.31,0,0,1,3.9-.16l12.46,7.19c1,.58.88,1.59-.28,2.26l-4.08,2.36A4.38,4.38,0,0,1,498.25,427Z"/><path class="cls-11" d="M523.24,441.43l-12.46-7.2c-1-.58-.88-1.59.28-2.25l4.08-2.36a4.31,4.31,0,0,1,3.9-.16l12.47,7.19c1,.58.87,1.59-.28,2.26l-4.09,2.35A4.35,4.35,0,0,1,523.24,441.43Z"/><path class="cls-11" d="M542.31,452.44l-12.46-7.2c-1-.58-.88-1.59.28-2.25l4.08-2.36a4.31,4.31,0,0,1,3.9-.16l12.47,7.19c1,.58.87,1.59-.28,2.26l-4.09,2.35A4.35,4.35,0,0,1,542.31,452.44Z"/><path class="cls-11" d="M561.38,463.45l-12.46-7.2c-1-.58-.88-1.59.28-2.25l4.08-2.36a4.31,4.31,0,0,1,3.9-.16l12.47,7.19c1,.58.87,1.59-.28,2.26l-4.08,2.35A4.37,4.37,0,0,1,561.38,463.45Z"/><path class="cls-11" d="M580.45,474.46,568,467.26c-1-.58-.88-1.59.28-2.25l4.08-2.36a4.33,4.33,0,0,1,3.91-.16l12.46,7.19c1,.58.87,1.59-.28,2.26l-4.08,2.36A4.4,4.4,0,0,1,580.45,474.46Z"/><path class="cls-11" d="M686.92,535.93l-12.46-7.2c-1-.58-.88-1.59.28-2.25l4.08-2.36a4.31,4.31,0,0,1,3.9-.16l12.47,7.19c1,.58.87,1.59-.28,2.26l-4.09,2.35A4.35,4.35,0,0,1,686.92,535.93Z"/><path class="cls-11" d="M706,546.94l-12.46-7.2c-1-.58-.88-1.59.28-2.25l4.08-2.36a4.31,4.31,0,0,1,3.9-.16l12.47,7.19c1,.58.87,1.59-.28,2.26l-4.09,2.35A4.35,4.35,0,0,1,706,546.94Z"/><path class="cls-11" d="M725.06,558l-12.46-7.2c-1-.58-.88-1.59.28-2.25l4.08-2.36a4.31,4.31,0,0,1,3.9-.16l12.47,7.19c1,.58.87,1.59-.28,2.26L729,557.79A4.38,4.38,0,0,1,725.06,558Z"/><path class="cls-11" d="M744.13,569l-12.46-7.2c-1-.58-.88-1.58.28-2.25l4.08-2.36a4.33,4.33,0,0,1,3.91-.16l12.46,7.2c1,.57.87,1.58-.28,2.25L748,568.8A4.37,4.37,0,0,1,744.13,569Z"/><path class="cls-11" d="M555.25,482.65l-12.46-7.2c-1-.58-.87-1.58.28-2.25l12.35-7.13a4.31,4.31,0,0,1,3.9-.16l12.47,7.19c1,.58.87,1.59-.28,2.26l-12.35,7.13A4.37,4.37,0,0,1,555.25,482.65Z"/><path class="cls-11" d="M574.5,493.76,562,486.56c-1-.57-.88-1.58.28-2.25l12.35-7.13a4.31,4.31,0,0,1,3.9-.16L591,484.21c1,.58.88,1.59-.28,2.26L578.4,493.6A4.35,4.35,0,0,1,574.5,493.76Z"/><path class="cls-11" d="M593.75,504.87l-12.47-7.19c-1-.58-.87-1.59.28-2.26l12.35-7.13a4.37,4.37,0,0,1,3.91-.16l12.46,7.2c1,.57.87,1.58-.28,2.25l-12.35,7.13A4.31,4.31,0,0,1,593.75,504.87Z"/><path class="cls-11" d="M613,516l-12.46-7.19c-1-.58-.88-1.59.28-2.26l12.35-7.13a4.35,4.35,0,0,1,3.9-.16l12.46,7.2c1,.58.88,1.58-.28,2.25l-12.34,7.13A4.34,4.34,0,0,1,613,516Z"/><path class="cls-11" d="M632.24,527.09l-12.46-7.19c-1-.58-.88-1.59.28-2.25l12.34-7.13a4.37,4.37,0,0,1,3.91-.17l12.46,7.2c1,.58.88,1.59-.28,2.25l-12.35,7.13A4.31,4.31,0,0,1,632.24,527.09Z"/><path class="cls-11" d="M651.48,538.21,639,531c-1-.58-.87-1.59.28-2.25l12.35-7.13a4.31,4.31,0,0,1,3.9-.16L668,528.66c1,.58.87,1.59-.28,2.26L655.39,538A4.37,4.37,0,0,1,651.48,538.21Z"/><path class="cls-11" d="M670.73,549.32l-12.46-7.2c-1-.57-.88-1.58.28-2.25l12.35-7.13a4.31,4.31,0,0,1,3.9-.16l12.46,7.19c1,.58.88,1.59-.28,2.26l-12.35,7.13A4.35,4.35,0,0,1,670.73,549.32Z"/><path class="cls-11" d="M690,560.43l-12.47-7.2c-1-.57-.87-1.58.28-2.25l12.35-7.13a4.34,4.34,0,0,1,3.91-.16l12.46,7.19c1,.58.87,1.59-.28,2.26l-12.35,7.13A4.31,4.31,0,0,1,690,560.43Z"/><path class="cls-11" d="M709.22,571.54l-12.46-7.19c-1-.58-.88-1.59.28-2.26L709.39,555a4.35,4.35,0,0,1,3.9-.16l12.47,7.2c1,.57.87,1.58-.29,2.25l-12.34,7.13A4.34,4.34,0,0,1,709.22,571.54Z"/><path class="cls-11" d="M445.22,484l-36.7-21.19c-1-.58-.88-1.59.28-2.26l12.35-7.12a4.35,4.35,0,0,1,3.9-.17l36.7,21.19c1,.58.88,1.59-.28,2.26l-12.35,7.13A4.35,4.35,0,0,1,445.22,484Z"/><path class="cls-11" d="M681.66,620.53,645,599.34c-1-.58-.88-1.59.28-2.25L657.59,590a4.35,4.35,0,0,1,3.9-.17L698.2,611c1,.58.87,1.59-.28,2.26l-12.35,7.13A4.34,4.34,0,0,1,681.66,620.53Z"/><path class="cls-11" d="M604.7,600.64l-12.47-7.2c-1-.58-.87-1.58.28-2.25l14.71-8.49a4.37,4.37,0,0,1,3.91-.17l12.46,7.2c1,.58.88,1.59-.28,2.25l-14.71,8.5A4.38,4.38,0,0,1,604.7,600.64Z"/><path class="cls-11" d="M464.93,519.94,445,508.44c-1-.58-.88-1.59.28-2.26L460,497.69a4.31,4.31,0,0,1,3.9-.16L483.82,509c1,.58.88,1.59-.28,2.26l-14.71,8.49A4.31,4.31,0,0,1,464.93,519.94Z"/><path class="cls-11" d="M586.15,589.93l-19.93-11.51c-1-.57-.87-1.58.28-2.25l14.71-8.49a4.31,4.31,0,0,1,3.9-.16L605.05,579c1,.58.87,1.59-.28,2.26l-14.71,8.49A4.34,4.34,0,0,1,586.15,589.93Z"/><path class="cls-11" d="M492.7,536l-19.93-11.51c-1-.58-.88-1.59.28-2.26l14.71-8.49a4.31,4.31,0,0,1,3.9-.16l19.93,11.51c1,.57.88,1.58-.28,2.25l-14.71,8.49A4.35,4.35,0,0,1,492.7,536Z"/><path class="cls-11" d="M491.8,513.64l86.65,50a1.19,1.19,0,0,1,0,2.25l-15,8.66a4.3,4.3,0,0,1-3.89,0l-86.66-50Z"/><path class="cls-11" d="M658.49,620.78l13.88,8c.82.47.71,1.3-.23,1.85l-6,3.47a3.53,3.53,0,0,1-3.2.13l-13.88-8c-.82-.47-.72-1.3.23-1.85l6-3.47A3.56,3.56,0,0,1,658.49,620.78Z"/><path class="cls-11" d="M639.08,609.58l13.88,8c.82.47.72,1.3-.23,1.84l-6,3.48a3.59,3.59,0,0,1-3.2.13l-13.88-8c-.82-.47-.71-1.3.23-1.84l6-3.48A3.59,3.59,0,0,1,639.08,609.58Z"/><path class="cls-11" d="M619.83,598.47l13.89,8c.82.48.71,1.3-.23,1.85l-6,3.48a3.59,3.59,0,0,1-3.2.13l-13.88-8c-.82-.47-.72-1.3.23-1.84l6-3.48A3.53,3.53,0,0,1,619.83,598.47Z"/><path class="cls-11" d="M649.71,603.44l13.88,8c.82.47.72,1.3-.23,1.85l-6,3.47a3.53,3.53,0,0,1-3.2.13l-13.88-8c-.82-.48-.72-1.3.23-1.85l6-3.47A3.56,3.56,0,0,1,649.71,603.44Z"/></g><g class="cls-10"><path class="cls-11" d="M399.72,482.3l-12.46-7.2c-1-.58-.87-1.59.28-2.25l14.71-8.5a4.35,4.35,0,0,1,3.9-.16l12.47,7.2c1,.58.87,1.58-.28,2.25l-14.71,8.49A4.37,4.37,0,0,1,399.72,482.3Z"/><path class="cls-11" d="M419,493.41l-12.46-7.2c-1-.57-.88-1.58.28-2.25l14.71-8.49a4.35,4.35,0,0,1,3.9-.17l12.46,7.2c1,.58.88,1.59-.28,2.25l-14.71,8.5A4.35,4.35,0,0,1,419,493.41Z"/><path class="cls-11" d="M438.22,504.52l-12.47-7.2c-1-.57-.87-1.58.28-2.25l14.71-8.49a4.34,4.34,0,0,1,3.91-.16l12.46,7.19c1,.58.87,1.59-.28,2.26l-14.71,8.49A4.31,4.31,0,0,1,438.22,504.52Z"/><path class="cls-11" d="M464.83,495.34l-12.46-7.19c-1-.58-.87-1.59.28-2.26L465,478.76a4.38,4.38,0,0,1,3.9-.16l12.47,7.2c1,.58.87,1.59-.28,2.25l-12.35,7.13A4.34,4.34,0,0,1,464.83,495.34Z"/><path class="cls-11" d="M484.08,506.45l-12.46-7.19c-1-.58-.88-1.59.28-2.25l12.35-7.13a4.35,4.35,0,0,1,3.9-.17l12.46,7.2c1,.58.88,1.59-.28,2.25L488,506.29A4.31,4.31,0,0,1,484.08,506.45Z"/><path class="cls-11" d="M503.33,517.57l-12.47-7.2c-1-.58-.87-1.59.28-2.25L503.49,501a4.34,4.34,0,0,1,3.91-.16L519.86,508c1,.58.87,1.59-.28,2.26l-12.35,7.12A4.35,4.35,0,0,1,503.33,517.57Z"/><path class="cls-11" d="M522.57,528.68l-12.46-7.2c-1-.57-.88-1.58.28-2.25l12.35-7.13a4.31,4.31,0,0,1,3.9-.16l12.46,7.19c1,.58.88,1.59-.28,2.26l-12.34,7.13A4.37,4.37,0,0,1,522.57,528.68Z"/><path class="cls-11" d="M541.82,539.79l-12.46-7.2c-1-.57-.88-1.58.28-2.25L542,523.21a4.34,4.34,0,0,1,3.91-.16l12.46,7.2c1,.57.88,1.58-.28,2.25l-12.35,7.13A4.31,4.31,0,0,1,541.82,539.79Z"/><path class="cls-11" d="M561.06,550.9l-12.46-7.19c-1-.58-.87-1.59.28-2.26l12.35-7.13a4.35,4.35,0,0,1,3.9-.16l12.47,7.2c1,.57.87,1.58-.28,2.25L565,550.74A4.34,4.34,0,0,1,561.06,550.9Z"/><path class="cls-11" d="M580.31,562l-12.46-7.19c-1-.58-.88-1.59.28-2.26l12.35-7.12a4.35,4.35,0,0,1,3.9-.17l12.46,7.2c1,.58.88,1.59-.28,2.25l-12.35,7.13A4.31,4.31,0,0,1,580.31,562Z"/><path class="cls-11" d="M599.56,573.13l-12.47-7.2c-1-.58-.87-1.59.28-2.25l12.35-7.13a4.34,4.34,0,0,1,3.91-.16l12.46,7.19c1,.58.87,1.59-.28,2.25L603.46,573A4.35,4.35,0,0,1,599.56,573.13Z"/><path class="cls-11" d="M618.8,584.24,606.34,577c-1-.58-.88-1.59.28-2.25L619,567.66a4.31,4.31,0,0,1,3.9-.16l12.47,7.19c1,.58.87,1.59-.29,2.26l-12.34,7.13A4.4,4.4,0,0,1,618.8,584.24Z"/><path class="cls-11" d="M638.05,595.35l-12.46-7.2c-1-.57-.88-1.58.28-2.25l12.34-7.13a4.34,4.34,0,0,1,3.91-.16l12.46,7.19c1,.58.88,1.59-.28,2.26L642,595.19A4.35,4.35,0,0,1,638.05,595.35Z"/><path class="cls-11" d="M493.19,490.08l-12.46-7.19c-1-.58-.88-1.59.28-2.26l12.35-7.13a4.35,4.35,0,0,1,3.9-.16l12.46,7.2c1,.58.88,1.58-.28,2.25l-12.34,7.13A4.34,4.34,0,0,1,493.19,490.08Z"/><path class="cls-11" d="M473.66,478.8l-12.46-7.19c-1-.58-.88-1.59.28-2.25l12.34-7.13a4.37,4.37,0,0,1,3.91-.17l12.46,7.2c1,.58.88,1.59-.28,2.25l-12.35,7.13A4.31,4.31,0,0,1,473.66,478.8Z"/><path class="cls-11" d="M454.09,467.51,427.25,452c-1-.58-.87-1.58.28-2.25l12.35-7.13a4.31,4.31,0,0,1,3.9-.16L470.63,458c1,.58.87,1.59-.28,2.26L458,467.35A4.37,4.37,0,0,1,454.09,467.51Z"/><path class="cls-11" d="M467.77,453.77,446,441.2c-1-.58-.88-1.59.28-2.26l12.35-7.13a4.31,4.31,0,0,1,3.9-.16l21.78,12.58c1,.57.88,1.58-.28,2.25l-12.35,7.13A4.31,4.31,0,0,1,467.77,453.77Z"/><path class="cls-11" d="M512.44,501.19,500,494c-1-.58-.87-1.59.29-2.25l12.34-7.13a4.37,4.37,0,0,1,3.91-.17l12.46,7.2c1,.58.88,1.59-.28,2.25L516.34,501A4.31,4.31,0,0,1,512.44,501.19Z"/><path class="cls-11" d="M531.68,512.31l-12.46-7.2c-1-.58-.87-1.59.28-2.25l12.35-7.13a4.31,4.31,0,0,1,3.9-.16l12.47,7.19c1,.58.87,1.59-.28,2.25l-12.35,7.13A4.37,4.37,0,0,1,531.68,512.31Z"/><path class="cls-11" d="M550.93,523.42l-12.46-7.2c-1-.58-.88-1.58.28-2.25l12.35-7.13a4.31,4.31,0,0,1,3.9-.16l12.46,7.19c1,.58.88,1.59-.28,2.26l-12.35,7.13A4.35,4.35,0,0,1,550.93,523.42Z"/><path class="cls-11" d="M570.18,534.53l-12.47-7.2c-1-.57-.87-1.58.28-2.25L570.34,518a4.34,4.34,0,0,1,3.91-.16L586.71,525c1,.58.87,1.59-.28,2.26l-12.35,7.13A4.35,4.35,0,0,1,570.18,534.53Z"/><path class="cls-11" d="M589.42,545.64,577,538.45c-1-.58-.88-1.59.28-2.26l12.35-7.13a4.35,4.35,0,0,1,3.9-.16L606,536.1c1,.57.88,1.58-.28,2.25l-12.34,7.13A4.34,4.34,0,0,1,589.42,545.64Z"/><path class="cls-11" d="M608.67,556.75l-12.46-7.19c-1-.58-.88-1.59.28-2.26l12.34-7.13a4.37,4.37,0,0,1,3.91-.16l12.46,7.2c1,.58.88,1.58-.28,2.25l-12.35,7.13A4.31,4.31,0,0,1,608.67,556.75Z"/><path class="cls-11" d="M627.91,567.86l-12.46-7.19c-1-.58-.87-1.59.28-2.25l12.35-7.13a4.35,4.35,0,0,1,3.9-.17l12.47,7.2c1,.58.87,1.59-.28,2.25l-12.35,7.13A4.34,4.34,0,0,1,627.91,567.86Z"/><path class="cls-11" d="M647.16,579l-12.46-7.2c-1-.58-.88-1.59.28-2.25l12.35-7.13a4.31,4.31,0,0,1,3.9-.16l12.46,7.19c1,.58.88,1.59-.28,2.26l-12.35,7.12A4.35,4.35,0,0,1,647.16,579Z"/><path class="cls-11" d="M666.41,590.09l-12.47-7.2c-1-.57-.87-1.58.28-2.25l12.35-7.13a4.34,4.34,0,0,1,3.91-.16l12.46,7.19c1,.58.87,1.59-.28,2.26l-12.35,7.13A4.35,4.35,0,0,1,666.41,590.09Z"/><path class="cls-11" d="M700.62,609.84l-27.19-15.7c-1-.57-.88-1.58.28-2.25l12.35-7.13a4.31,4.31,0,0,1,3.9-.16l27.19,15.7c1,.58.88,1.58-.28,2.25l-12.34,7.13A4.34,4.34,0,0,1,700.62,609.84Z"/><path class="cls-11" d="M738.09,588.21l-23-13.25c-1-.58-.88-1.59.28-2.26l12.35-7.13a4.38,4.38,0,0,1,3.9-.16l23,13.25c1,.58.88,1.59-.28,2.26L742,588.05A4.37,4.37,0,0,1,738.09,588.21Z"/><path class="cls-11" d="M546.14,499l-12.46-7.2c-1-.57-.88-1.58.28-2.25l12.35-7.13a4.31,4.31,0,0,1,3.9-.16l12.46,7.19c1,.58.88,1.59-.28,2.26l-12.34,7.13A4.34,4.34,0,0,1,546.14,499Z"/><path class="cls-11" d="M526.42,487.63,514,480.44c-1-.58-.87-1.59.28-2.26l12.35-7.13a4.37,4.37,0,0,1,3.91-.16l12.46,7.2c1,.57.87,1.58-.28,2.25l-12.35,7.13A4.31,4.31,0,0,1,526.42,487.63Z"/><path class="cls-11" d="M506.69,476.24l-12.46-7.19c-1-.58-.88-1.59.28-2.26l12.35-7.12a4.35,4.35,0,0,1,3.9-.17l12.46,7.2c1,.58.88,1.59-.28,2.25l-12.34,7.13A4.34,4.34,0,0,1,506.69,476.24Z"/><path class="cls-11" d="M487,464.86l-12.47-7.2c-1-.58-.87-1.59.28-2.25l12.35-7.13a4.34,4.34,0,0,1,3.91-.16l12.46,7.19c1,.58.87,1.59-.28,2.25l-12.35,7.13A4.35,4.35,0,0,1,487,464.86Z"/><path class="cls-11" d="M565.39,510.13l-12.46-7.19c-1-.58-.88-1.59.28-2.26l12.34-7.13a4.37,4.37,0,0,1,3.91-.16l12.46,7.2c1,.57.88,1.58-.28,2.25L569.29,510A4.31,4.31,0,0,1,565.39,510.13Z"/><path class="cls-11" d="M584.63,521.24l-12.46-7.19c-1-.58-.87-1.59.28-2.26l12.35-7.12a4.35,4.35,0,0,1,3.9-.17l12.47,7.2c1,.58.87,1.59-.28,2.25l-12.35,7.13A4.34,4.34,0,0,1,584.63,521.24Z"/><path class="cls-11" d="M603.88,532.36l-12.46-7.2c-1-.58-.88-1.59.28-2.25l12.35-7.13a4.35,4.35,0,0,1,3.9-.17l12.46,7.2c1,.58.88,1.59-.28,2.25l-12.35,7.13A4.35,4.35,0,0,1,603.88,532.36Z"/><path class="cls-11" d="M623.13,543.47l-12.47-7.2c-1-.58-.87-1.58.28-2.25l12.35-7.13a4.34,4.34,0,0,1,3.91-.16l12.46,7.19c1,.58.87,1.59-.28,2.26L627,543.31A4.38,4.38,0,0,1,623.13,543.47Z"/><path class="cls-11" d="M642.37,554.58l-12.46-7.2c-1-.57-.88-1.58.28-2.25L642.54,538a4.31,4.31,0,0,1,3.9-.16L658.91,545c1,.58.87,1.59-.29,2.26l-12.34,7.13A4.37,4.37,0,0,1,642.37,554.58Z"/><path class="cls-11" d="M661.62,565.69l-12.46-7.19c-1-.58-.88-1.59.28-2.26l12.34-7.13a4.34,4.34,0,0,1,3.91-.16l12.46,7.2c1,.57.88,1.58-.28,2.25l-12.35,7.13A4.31,4.31,0,0,1,661.62,565.69Z"/><path class="cls-11" d="M680.86,576.8l-12.46-7.19c-1-.58-.87-1.59.28-2.26L681,560.22a4.35,4.35,0,0,1,3.9-.16l12.47,7.2c1,.58.87,1.58-.28,2.25l-12.35,7.13A4.33,4.33,0,0,1,680.86,576.8Z"/><path class="cls-11" d="M700.11,587.91l-12.46-7.19c-1-.58-.88-1.59.28-2.26l12.35-7.12a4.35,4.35,0,0,1,3.9-.17l12.46,7.2c1,.58.88,1.59-.28,2.25L704,587.75A4.31,4.31,0,0,1,700.11,587.91Z"/><path class="cls-11" d="M719.36,599l-12.47-7.2c-1-.58-.87-1.59.28-2.25l12.35-7.13a4.34,4.34,0,0,1,3.91-.16l12.46,7.19c1,.58.87,1.59-.28,2.25l-12.35,7.13A4.35,4.35,0,0,1,719.36,599Z"/><path class="cls-11" d="M536,471.54l-12.47-7.2c-1-.58-.87-1.59.29-2.25L536.17,455a4.34,4.34,0,0,1,3.91-.16L552.54,462c1,.58.88,1.59-.28,2.25l-12.35,7.13A4.35,4.35,0,0,1,536,471.54Z"/><path class="cls-11" d="M516.86,460.48l-12.47-7.2c-1-.57-.87-1.58.28-2.25L517,443.9a4.34,4.34,0,0,1,3.91-.16l12.46,7.19c1,.58.87,1.59-.28,2.26l-12.35,7.13A4.35,4.35,0,0,1,516.86,460.48Z"/><path class="cls-11" d="M497.71,449.42l-12.47-7.19c-1-.58-.87-1.59.28-2.26l12.35-7.13a4.37,4.37,0,0,1,3.91-.16l12.46,7.2c1,.58.87,1.58-.28,2.25l-12.35,7.13A4.31,4.31,0,0,1,497.71,449.42Z"/><path class="cls-11" d="M478.56,438.37l-12.47-7.2c-1-.58-.87-1.59.28-2.25l12.35-7.13a4.34,4.34,0,0,1,3.91-.16l12.46,7.19c1,.58.87,1.59-.28,2.26l-12.35,7.12A4.35,4.35,0,0,1,478.56,438.37Z"/><path class="cls-11" d="M498.25,427l-12.46-7.2c-1-.58-.88-1.59.28-2.25l4.08-2.36a4.31,4.31,0,0,1,3.9-.16l12.46,7.19c1,.58.88,1.59-.28,2.26l-4.08,2.36A4.38,4.38,0,0,1,498.25,427Z"/><path class="cls-11" d="M523.24,441.43l-12.46-7.2c-1-.58-.88-1.59.28-2.25l4.08-2.36a4.31,4.31,0,0,1,3.9-.16l12.47,7.19c1,.58.87,1.59-.28,2.26l-4.09,2.35A4.35,4.35,0,0,1,523.24,441.43Z"/><path class="cls-11" d="M542.31,452.44l-12.46-7.2c-1-.58-.88-1.59.28-2.25l4.08-2.36a4.31,4.31,0,0,1,3.9-.16l12.47,7.19c1,.58.87,1.59-.28,2.26l-4.09,2.35A4.35,4.35,0,0,1,542.31,452.44Z"/><path class="cls-11" d="M561.38,463.45l-12.46-7.2c-1-.58-.88-1.59.28-2.25l4.08-2.36a4.31,4.31,0,0,1,3.9-.16l12.47,7.19c1,.58.87,1.59-.28,2.26l-4.08,2.35A4.37,4.37,0,0,1,561.38,463.45Z"/><path class="cls-11" d="M580.45,474.46,568,467.26c-1-.58-.88-1.59.28-2.25l4.08-2.36a4.33,4.33,0,0,1,3.91-.16l12.46,7.19c1,.58.87,1.59-.28,2.26l-4.08,2.36A4.4,4.4,0,0,1,580.45,474.46Z"/><path class="cls-11" d="M686.92,535.93l-12.46-7.2c-1-.58-.88-1.59.28-2.25l4.08-2.36a4.31,4.31,0,0,1,3.9-.16l12.47,7.19c1,.58.87,1.59-.28,2.26l-4.09,2.35A4.35,4.35,0,0,1,686.92,535.93Z"/><path class="cls-11" d="M706,546.94l-12.46-7.2c-1-.58-.88-1.59.28-2.25l4.08-2.36a4.31,4.31,0,0,1,3.9-.16l12.47,7.19c1,.58.87,1.59-.28,2.26l-4.09,2.35A4.35,4.35,0,0,1,706,546.94Z"/><path class="cls-11" d="M725.06,558l-12.46-7.2c-1-.58-.88-1.59.28-2.25l4.08-2.36a4.31,4.31,0,0,1,3.9-.16l12.47,7.19c1,.58.87,1.59-.28,2.26L729,557.79A4.38,4.38,0,0,1,725.06,558Z"/><path class="cls-11" d="M744.13,569l-12.46-7.2c-1-.58-.88-1.58.28-2.25l4.08-2.36a4.33,4.33,0,0,1,3.91-.16l12.46,7.2c1,.57.87,1.58-.28,2.25L748,568.8A4.37,4.37,0,0,1,744.13,569Z"/><path class="cls-11" d="M555.25,482.65l-12.46-7.2c-1-.58-.87-1.58.28-2.25l12.35-7.13a4.31,4.31,0,0,1,3.9-.16l12.47,7.19c1,.58.87,1.59-.28,2.26l-12.35,7.13A4.37,4.37,0,0,1,555.25,482.65Z"/><path class="cls-11" d="M574.5,493.76,562,486.56c-1-.57-.88-1.58.28-2.25l12.35-7.13a4.31,4.31,0,0,1,3.9-.16L591,484.21c1,.58.88,1.59-.28,2.26L578.4,493.6A4.35,4.35,0,0,1,574.5,493.76Z"/><path class="cls-11" d="M593.75,504.87l-12.47-7.19c-1-.58-.87-1.59.28-2.26l12.35-7.13a4.37,4.37,0,0,1,3.91-.16l12.46,7.2c1,.57.87,1.58-.28,2.25l-12.35,7.13A4.31,4.31,0,0,1,593.75,504.87Z"/><path class="cls-11" d="M613,516l-12.46-7.19c-1-.58-.88-1.59.28-2.26l12.35-7.13a4.35,4.35,0,0,1,3.9-.16l12.46,7.2c1,.58.88,1.58-.28,2.25l-12.34,7.13A4.34,4.34,0,0,1,613,516Z"/><path class="cls-11" d="M632.24,527.09l-12.46-7.19c-1-.58-.88-1.59.28-2.25l12.34-7.13a4.37,4.37,0,0,1,3.91-.17l12.46,7.2c1,.58.88,1.59-.28,2.25l-12.35,7.13A4.31,4.31,0,0,1,632.24,527.09Z"/><path class="cls-11" d="M651.48,538.21,639,531c-1-.58-.87-1.59.28-2.25l12.35-7.13a4.31,4.31,0,0,1,3.9-.16L668,528.66c1,.58.87,1.59-.28,2.26L655.39,538A4.37,4.37,0,0,1,651.48,538.21Z"/><path class="cls-11" d="M670.73,549.32l-12.46-7.2c-1-.57-.88-1.58.28-2.25l12.35-7.13a4.31,4.31,0,0,1,3.9-.16l12.46,7.19c1,.58.88,1.59-.28,2.26l-12.35,7.13A4.35,4.35,0,0,1,670.73,549.32Z"/><path class="cls-11" d="M690,560.43l-12.47-7.2c-1-.57-.87-1.58.28-2.25l12.35-7.13a4.34,4.34,0,0,1,3.91-.16l12.46,7.19c1,.58.87,1.59-.28,2.26l-12.35,7.13A4.31,4.31,0,0,1,690,560.43Z"/><path class="cls-11" d="M709.22,571.54l-12.46-7.19c-1-.58-.88-1.59.28-2.26L709.39,555a4.35,4.35,0,0,1,3.9-.16l12.47,7.2c1,.57.87,1.58-.29,2.25l-12.34,7.13A4.34,4.34,0,0,1,709.22,571.54Z"/><path class="cls-11" d="M445.22,484l-36.7-21.19c-1-.58-.88-1.59.28-2.26l12.35-7.12a4.35,4.35,0,0,1,3.9-.17l36.7,21.19c1,.58.88,1.59-.28,2.26l-12.35,7.13A4.35,4.35,0,0,1,445.22,484Z"/><path class="cls-11" d="M681.66,620.53,645,599.34c-1-.58-.88-1.59.28-2.25L657.59,590a4.35,4.35,0,0,1,3.9-.17L698.2,611c1,.58.87,1.59-.28,2.26l-12.35,7.13A4.34,4.34,0,0,1,681.66,620.53Z"/><path class="cls-11" d="M604.7,600.64l-12.47-7.2c-1-.58-.87-1.58.28-2.25l14.71-8.49a4.37,4.37,0,0,1,3.91-.17l12.46,7.2c1,.58.88,1.59-.28,2.25l-14.71,8.5A4.38,4.38,0,0,1,604.7,600.64Z"/><path class="cls-11" d="M464.93,519.94,445,508.44c-1-.58-.88-1.59.28-2.26L460,497.69a4.31,4.31,0,0,1,3.9-.16L483.82,509c1,.58.88,1.59-.28,2.26l-14.71,8.49A4.31,4.31,0,0,1,464.93,519.94Z"/><path class="cls-11" d="M586.15,589.93l-19.93-11.51c-1-.57-.87-1.58.28-2.25l14.71-8.49a4.31,4.31,0,0,1,3.9-.16L605.05,579c1,.58.87,1.59-.28,2.26l-14.71,8.49A4.34,4.34,0,0,1,586.15,589.93Z"/><path class="cls-11" d="M492.7,536l-19.93-11.51c-1-.58-.88-1.59.28-2.26l14.71-8.49a4.31,4.31,0,0,1,3.9-.16l19.93,11.51c1,.57.88,1.58-.28,2.25l-14.71,8.49A4.35,4.35,0,0,1,492.7,536Z"/><path class="cls-11" d="M491.8,513.64l86.65,50a1.19,1.19,0,0,1,0,2.25l-15,8.66a4.3,4.3,0,0,1-3.89,0l-86.66-50Z"/><path class="cls-11" d="M658.49,620.78l13.88,8c.82.47.71,1.3-.23,1.85l-6,3.47a3.53,3.53,0,0,1-3.2.13l-13.88-8c-.82-.47-.72-1.3.23-1.85l6-3.47A3.56,3.56,0,0,1,658.49,620.78Z"/><path class="cls-11" d="M639.08,609.58l13.88,8c.82.47.72,1.3-.23,1.84l-6,3.48a3.59,3.59,0,0,1-3.2.13l-13.88-8c-.82-.47-.71-1.3.23-1.84l6-3.48A3.59,3.59,0,0,1,639.08,609.58Z"/><path class="cls-11" d="M619.83,598.47l13.89,8c.82.48.71,1.3-.23,1.85l-6,3.48a3.59,3.59,0,0,1-3.2.13l-13.88-8c-.82-.47-.72-1.3.23-1.84l6-3.48A3.53,3.53,0,0,1,619.83,598.47Z"/><path class="cls-11" d="M649.71,603.44l13.88,8c.82.47.72,1.3-.23,1.85l-6,3.47a3.53,3.53,0,0,1-3.2.13l-13.88-8c-.82-.48-.72-1.3.23-1.85l6-3.47A3.56,3.56,0,0,1,649.71,603.44Z"/></g><path class="cls-12" d="M853.4,581,485.71,368.68c-5.78-3.34-8.8-11.47-6.74-18.17l83.15-270c2.06-6.7,8.42-9.42,14.2-6.08L944,286.74c5.79,3.34,8.8,11.48,6.74,18.17l-83.15,270C865.53,581.58,859.18,584.3,853.4,581Z"/><path class="cls-13" d="M849.93,571.51,493.29,365.43c-5.53-3.19-8.42-11-6.45-17.38L566.34,90c2-6.4,8-9,13.59-5.81L936.56,290.21c5.54,3.2,8.42,11,6.45,17.39L863.52,565.69C861.55,572.1,855.46,574.7,849.93,571.51Z"/><path class="cls-14" d="M849.93,571.51,493.29,365.43c-5.53-3.19-8.42-11-6.45-17.38L566.34,90c2-6.4,8-9,13.59-5.81L936.56,290.21c5.54,3.2,8.42,11,6.45,17.39L863.52,565.69C861.55,572.1,855.46,574.7,849.93,571.51Z"/><path class="cls-14" d="M849.93,571.51,493.29,365.43c-5.53-3.19-8.42-11-6.45-17.38L566.34,90c2-6.4,8-9,13.59-5.81L936.56,290.21c5.54,3.2,8.42,11,6.45,17.39L863.52,565.69C861.55,572.1,855.46,574.7,849.93,571.51Z"/><path class="cls-15" d="M830.77,492.64,589.34,353.25c-3.79-2.19-5.77-7.53-4.42-11.93l54.6-177.26c1.35-4.4,5.52-6.19,9.32-4L890.26,299.45c3.8,2.19,5.78,7.53,4.43,11.93l-54.6,177.27C838.74,493,834.57,494.83,830.77,492.64Z"/><path class="cls-16" d="M798.15,496.92,556.73,357.53c-3.8-2.19-5.78-7.53-4.43-11.93l54.6-177.27c1.35-4.39,5.52-6.18,9.32-4L857.64,303.73c3.8,2.19,5.78,7.53,4.43,11.93l-54.6,177.26C806.12,497.32,802,499.11,798.15,496.92Z"/><g class="cls-17"><path class="cls-11" d="M798.15,496.92,556.73,357.53c-3.8-2.19-5.78-7.53-4.43-11.93l54.6-177.27c1.35-4.39,5.52-6.18,9.32-4L857.64,303.73c3.8,2.19,5.78,7.53,4.43,11.93l-54.6,177.26C806.12,497.32,802,499.11,798.15,496.92Z"/></g><path class="cls-9" d="M857.64,303.73,616.22,164.34a6,6,0,0,0-6.79.23,6.54,6.54,0,0,1,3.48.9L854.34,304.85c3.79,2.2,5.77,7.54,4.42,11.93L804.17,494.05a7.35,7.35,0,0,1-2.53,3.76c2.59-.08,4.89-1.83,5.83-4.89l54.6-177.26C863.42,311.26,861.44,305.92,857.64,303.73Z"/><path class="cls-14" d="M493.66,641.67a18.14,18.14,0,0,1-9-2.1h0L388,583.73c-2.57-1.48-4-3.59-4-6,0-2.74,1.95-5.43,5.34-7.39l49.78-28.75c6.09-3.51,15-3.85,20.34-.78l96.73,55.84c2.56,1.48,4,3.6,4,6,0,2.74-1.94,5.44-5.33,7.4l-49.79,28.74A23.31,23.31,0,0,1,493.66,641.67ZM450.57,541.58a20.77,20.77,0,0,0-10,2.47L390.74,572.8c-2.5,1.44-3.94,3.26-3.94,5s1.4,2.86,2.58,3.54l96.73,55.85c4.39,2.53,12.42,2.17,17.54-.79l49.79-28.74c2.5-1.45,3.94-3.26,3.94-5s-1.4-2.86-2.58-3.54l-96.73-55.84A15.28,15.28,0,0,0,450.57,541.58Z"/><path class="cls-9" d="M675,257.34l-14.92-8.61a3.9,3.9,0,0,1-1.66-4.3h0a2.2,2.2,0,0,1,3.35-1.39l14.93,8.61a3.91,3.91,0,0,1,1.66,4.3h0A2.21,2.21,0,0,1,675,257.34Z"/><path class="cls-9" d="M710.58,277.87l-22-12.71a3.88,3.88,0,0,1-1.66-4.29h0a2.21,2.21,0,0,1,3.35-1.4l22,12.71a3.88,3.88,0,0,1,1.66,4.29h0A2.21,2.21,0,0,1,710.58,277.87Z"/><path class="cls-9" d="M644.92,323.79,630,315.18a3.89,3.89,0,0,1-1.66-4.3h0a2.2,2.2,0,0,1,3.35-1.39l14.93,8.62a3.89,3.89,0,0,1,1.66,4.29h0A2.21,2.21,0,0,1,644.92,323.79Z"/><path class="cls-9" d="M676.61,342.09l-22-12.7a3.9,3.9,0,0,1-1.66-4.3h0a2.2,2.2,0,0,1,3.35-1.39l22,12.7a3.89,3.89,0,0,1,1.66,4.3h0A2.21,2.21,0,0,1,676.61,342.09Z"/><path class="cls-9" d="M630.31,245.5,621,240.12a3.88,3.88,0,0,1-1.66-4.29h0a2.21,2.21,0,0,1,3.36-1.4l9.32,5.38a3.9,3.9,0,0,1,1.66,4.29h0A2.21,2.21,0,0,1,630.31,245.5Z"/><path class="cls-9" d="M658.37,275.67l-28.49-16.45a3.88,3.88,0,0,1-1.66-4.29h0a2.21,2.21,0,0,1,3.36-1.4L660.07,270a3.89,3.89,0,0,1,1.65,4.29h0A2.2,2.2,0,0,1,658.37,275.67Z"/><path class="cls-9" d="M632.09,288.44l-9.32-5.38a3.88,3.88,0,0,1-1.66-4.29h0a2.21,2.21,0,0,1,3.36-1.4l9.32,5.39a3.89,3.89,0,0,1,1.66,4.29h0A2.21,2.21,0,0,1,632.09,288.44Z"/><path class="cls-9" d="M680.05,372l-24.9-14.38a3.88,3.88,0,0,1-1.66-4.29h0a2.21,2.21,0,0,1,3.35-1.4l24.91,14.38a3.9,3.9,0,0,1,1.66,4.29h0A2.21,2.21,0,0,1,680.05,372Z"/><path class="cls-9" d="M621.64,310.35l-6-3.45a3.88,3.88,0,0,1-1.66-4.29h0a2.21,2.21,0,0,1,3.35-1.4l6,3.45A3.91,3.91,0,0,1,625,309h0A2.21,2.21,0,0,1,621.64,310.35Z"/><path class="cls-9" d="M616,335l-7.43-4.29a3.9,3.9,0,0,1-1.66-4.3h0a2.2,2.2,0,0,1,3.35-1.39l7.44,4.29a3.89,3.89,0,0,1,1.65,4.29h0A2.21,2.21,0,0,1,616,335Z"/><path class="cls-9" d="M644.89,351.72,625.3,340.41a3.88,3.88,0,0,1-1.66-4.29h0a2.2,2.2,0,0,1,3.35-1.4L646.59,346a3.88,3.88,0,0,1,1.66,4.29h0A2.21,2.21,0,0,1,644.89,351.72Z"/><path class="cls-9" d="M619.08,350.79,605,342.65a3.9,3.9,0,0,1-1.66-4.29h0a2.21,2.21,0,0,1,3.36-1.39l14.09,8.13a3.91,3.91,0,0,1,1.66,4.29h0A2.22,2.22,0,0,1,619.08,350.79Z"/><path class="cls-9" d="M701.42,384.41l-9-5.22a3.88,3.88,0,0,1-1.66-4.29h0a2.21,2.21,0,0,1,3.35-1.4l9.05,5.23a3.88,3.88,0,0,1,1.66,4.29h0A2.2,2.2,0,0,1,701.42,384.41Z"/><path class="cls-9" d="M666.78,308.47l-24.91-14.38a3.9,3.9,0,0,1-1.66-4.29h0a2.21,2.21,0,0,1,3.36-1.4l24.9,14.38a3.88,3.88,0,0,1,1.66,4.29h0A2.21,2.21,0,0,1,666.78,308.47Z"/><path class="cls-18" d="M669.73,296.2l-43.41-25.06a3.89,3.89,0,0,1-1.65-4.29h0a2.21,2.21,0,0,1,3.35-1.4l43.41,25.06a3.89,3.89,0,0,1,1.65,4.29h0A2.2,2.2,0,0,1,669.73,296.2Z"/><path class="cls-18" d="M644.12,309.36,619.21,295a3.91,3.91,0,0,1-1.66-4.29h0a2.22,2.22,0,0,1,3.36-1.4l24.9,14.38a3.88,3.88,0,0,1,1.66,4.29h0A2.21,2.21,0,0,1,644.12,309.36Z"/><path class="cls-18" d="M685.66,319.37l-9-5.22a3.88,3.88,0,0,1-1.66-4.29h0a2.21,2.21,0,0,1,3.35-1.4l9.05,5.23A3.88,3.88,0,0,1,689,318h0A2.21,2.21,0,0,1,685.66,319.37Z"/><path class="cls-18" d="M777.7,316.63l-53.58-30.94a3.9,3.9,0,0,1-1.66-4.29h0a2.21,2.21,0,0,1,3.36-1.4l53.58,30.94a3.88,3.88,0,0,1,1.66,4.29h0A2.21,2.21,0,0,1,777.7,316.63Z"/><path class="cls-19" d="M642,336.1,612.1,318.82a3.9,3.9,0,0,1-1.66-4.29h0a2.21,2.21,0,0,1,3.36-1.4l29.93,17.28a3.88,3.88,0,0,1,1.66,4.29h0A2.21,2.21,0,0,1,642,336.1Z"/><path class="cls-19" d="M646.55,240.91l-22-12.71a3.91,3.91,0,0,1-1.66-4.29h0a2.22,2.22,0,0,1,3.36-1.4l22,12.71a3.9,3.9,0,0,1,1.66,4.29h0A2.22,2.22,0,0,1,646.55,240.91Z"/><path class="cls-18" d="M614.48,362.1,589,347.39a3.89,3.89,0,0,1-1.66-4.3h0a2.2,2.2,0,0,1,3.35-1.39l25.49,14.71a3.9,3.9,0,0,1,1.66,4.3h0A2.2,2.2,0,0,1,614.48,362.1Z"/><path class="cls-9" d="M783.72,289.07l-10.91-6.3a2.84,2.84,0,0,1-1.21-3.14h0a1.61,1.61,0,0,1,2.45-1l10.91,6.3a2.86,2.86,0,0,1,1.21,3.14h0A1.61,1.61,0,0,1,783.72,289.07Z"/><path class="cls-9" d="M804.53,301.08l-10.91-6.3a2.82,2.82,0,0,1-1.21-3.13h0a1.61,1.61,0,0,1,2.45-1l10.91,6.3a2.84,2.84,0,0,1,1.21,3.13h0A1.61,1.61,0,0,1,804.53,301.08Z"/><path class="cls-9" d="M825.34,313.1l-10.91-6.3a2.84,2.84,0,0,1-1.21-3.14h0a1.61,1.61,0,0,1,2.45-1l10.91,6.3a2.85,2.85,0,0,1,1.21,3.14h0A1.61,1.61,0,0,1,825.34,313.1Z"/><path class="cls-19" d="M835.57,319l-.33-.2a2.82,2.82,0,0,1-1.21-3.13h0a1.61,1.61,0,0,1,2.45-1l.33.19A2.86,2.86,0,0,1,838,318h0A1.61,1.61,0,0,1,835.57,319Z"/><path class="cls-20" d="M272.48,446.69a39.85,39.85,0,0,1-20-5.34h0l-73.09-42.19a10.12,10.12,0,0,1,0-17.53l73.08-42.19a40,40,0,0,1,39.94,0l73.08,42.19a10.11,10.11,0,0,1,0,17.53l-73.08,42.19A39.86,39.86,0,0,1,272.48,446.69Zm-17.59-9.46a35.27,35.27,0,0,0,35.19,0L363.16,395a5.37,5.37,0,0,0,0-9.29l-73.09-42.2a35.3,35.3,0,0,0-35.18,0l-73.08,42.2a5.37,5.37,0,0,0,0,9.29Z"/><ellipse class="cls-4" cx="272.11" cy="391.39" rx="50.2" ry="28.98"/><path class="cls-21" d="M346.52,184.83h-143l13.29,154.8h0c0,8.6,5.69,17.2,17,23.76,22.72,13.12,59.57,13.12,82.29,0,11.37-6.56,17.05-15.16,17.05-23.76Z"/><path class="cls-14" d="M346.52,184.83h-143l2.18,25.47A55.87,55.87,0,0,0,219,222.22c27.32,18.12,72.4,21.61,103.16,8.56L317.39,344a22.26,22.26,0,0,1-5.11,13.5c-4.63,5.45-13.55,11.86-30.71,15.49,12.65-.83,24.92-4,34.61-9.61,11.37-6.56,17.05-15.16,17.05-23.76l10.66-124.15h0Z"/><ellipse class="cls-14" cx="275.04" cy="184.83" rx="71.49" ry="41.27"/><ellipse class="cls-14" cx="275.04" cy="170.28" rx="61.58" ry="35.55"/><path class="cls-22" d="M350.76,182.88h0l0-.12a1.49,1.49,0,0,0,0-.21l-1.37-13.86-.06.15c-.61-10.49-7.84-20.88-21.71-28.88-29-16.76-76.09-16.76-105.11,0-14.22,8.22-21.46,18.92-21.74,29.68l0,0L199.41,182c0,.32-.07.64-.1,1l0,.21h0c-.78,11.76,6.59,23.66,22.14,32.64,29.6,17.09,77.59,17.09,107.2,0C344.28,206.72,351.65,194.71,350.76,182.88Z"/><ellipse class="cls-23" cx="275.04" cy="170.28" rx="61.58" ry="35.55"/><ellipse class="cls-24" cx="272.11" cy="170.28" rx="61.58" ry="35.55"/><path class="cls-14" d="M238.8,150.44c24.05-13.89,63-13.89,87.08,0,.31.17.56.37.86.55a49.24,49.24,0,0,0-8.16-5.85c-24.05-13.88-63-13.88-87.09,0-23.74,13.71-24,35.81-.86,49.73C215.19,181.09,217.89,162.51,238.8,150.44Z"/><path class="cls-25" d="M231.49,151.31c24-13.88,63-13.88,87.09,0,10.66,6.16,16.58,14,17.79,22.06,1.51-10.1-4.41-20.5-17.79-28.23-24.05-13.88-63-13.88-87.09,0-13.38,7.73-19.3,18.13-17.79,28.22C214.91,165.32,220.83,157.47,231.49,151.31Z"/><path class="cls-26" d="M328.05,140.29c-29-17.08-76.22-17.49-105.5-.93S193,183.19,222,200.27s76.22,17.49,105.5.93S357,157.37,328.05,140.29Zm-9.47,55.13c-8,4.64-17.75,7.69-28,9.23L289.46,201a3.52,3.52,0,0,0-3.37-2.49H264a3.52,3.52,0,0,0-3.37,2.49l-1.12,3.68c-10.25-1.54-20-4.6-28-9.23-24.05-13.89-24.05-36.4,0-50.28s63-13.88,87.09,0S342.62,181.53,318.58,195.42Z"/><path class="cls-9" d="M318.58,142.51c-24.05-13.88-63-13.88-87.09,0-12.6,7.28-18.58,16.92-18,26.45.56-8.65,6.54-17.21,18-23.82,24-13.88,63-13.88,87.09,0,11.44,6.61,17.42,15.17,18,23.82C337.16,159.43,331.18,149.79,318.58,142.51Z"/><path class="cls-9" d="M327.52,198.57c-29.28,16.56-76.52,16.14-105.5-.93-13.79-8.13-21-18.56-21.53-29-.57,11.36,6.58,22.87,21.53,31.68,29,17.08,76.22,17.49,105.5.93,15.34-8.68,22.7-20.3,22.06-31.86C349,180,341.7,190.54,327.52,198.57Z"/><rect class="cls-27" x="266.76" y="202.99" width="16.56" height="3.57" rx="0.65"/><path class="cls-28" d="M281.64,203H268.43a1.67,1.67,0,0,0-1.67,1.67v.23a1.56,1.56,0,0,0,.09.44,1.64,1.64,0,0,1,1.58-1.22h13.21a1.63,1.63,0,0,1,1.58,1.22,1.56,1.56,0,0,0,.09-.44v-.23A1.66,1.66,0,0,0,281.64,203Z"/><path class="cls-18" d="M277.06,323.73A11.42,11.42,0,0,1,255,317.86c1.62-6.1,7.37-7.82,13.47-6.2S278.68,317.63,277.06,323.73Z"/><path class="cls-18" d="M286.05,311.7a5.06,5.06,0,1,1-7.07-7.24c2.3-2.24,6.67-3.35,8.63-1.35S288.35,309.45,286.05,311.7Z"/><path class="cls-18" d="M274.11,302.14a5.06,5.06,0,1,1-10-1.77c.56-3.17,3.47-6.61,6.22-6.12S274.67,299,274.11,302.14Z"/><path class="cls-18" d="M259.38,300.68a5.06,5.06,0,1,1-9.35,3.85c-1.23-3-.62-7.45,2-8.51S258.16,297.7,259.38,300.68Z"/><path class="cls-29" d="M279.72,204.77s40-13.39,23.79-59.32-47.7-59.93-35-96.68c0,0-19.89,29.75-1.3,70s22.67,35.62,22.45,54.87a34.71,34.71,0,0,1-18.73,31.14Z"/><path class="cls-29" d="M283.31,55.16S279.15,27.69,304.92,0c0,0-22.79,50.9-15.33,76C289.59,76,283.56,60.06,283.31,55.16Z"/></g></g></svg>