<svg xmlns="http://www.w3.org/2000/svg" xmlns:xlink="http://www.w3.org/1999/xlink" width="300.422" height="84.111" viewBox="0 0 300.422 84.111">
  <defs>
    <linearGradient id="linear-gradient" x1="0.5" x2="0.5" y2="1" gradientUnits="objectBoundingBox">
      <stop offset="0" stop-color="#6a41f8"/>
      <stop offset="1" stop-color="#9d2df2"/>
    </linearGradient>
  </defs>
  <path id="Path_1" data-name="Path 1" d="M72.387-8.326A41.372,41.372,0,0,1,59.7-.85,41.523,41.523,0,0,1,45.143,1.756a41.026,41.026,0,0,1-11.13-1.5A42.14,42.14,0,0,1,23.987-3.993a42.4,42.4,0,0,1-8.524-6.6,42.4,42.4,0,0,1-6.6-8.524A42.14,42.14,0,0,1,4.616-29.142a41.026,41.026,0,0,1-1.5-11.13,41.333,41.333,0,0,1,1.5-11.158A42.02,42.02,0,0,1,8.864-61.483a42.4,42.4,0,0,1,6.6-8.524,42.4,42.4,0,0,1,8.524-6.6,42.141,42.141,0,0,1,10.025-4.248,41.026,41.026,0,0,1,11.13-1.5A41.93,41.93,0,0,1,59.7-79.778a40.354,40.354,0,0,1,12.688,7.5l-8.609,14.16a24.33,24.33,0,0,0-8.439-5.919,25.834,25.834,0,0,0-10.2-2.067,25.061,25.061,0,0,0-10.082,2.039,26.529,26.529,0,0,0-8.213,5.522A25.855,25.855,0,0,0,21.3-50.325a25.122,25.122,0,0,0-2.039,10.054,24.721,24.721,0,0,0,2.039,10,26.374,26.374,0,0,0,5.551,8.185,26.282,26.282,0,0,0,8.213,5.551A25.061,25.061,0,0,0,45.143-14.5a25.834,25.834,0,0,0,10.2-2.067,24.33,24.33,0,0,0,8.439-5.919Zm88.982-31.945a41.026,41.026,0,0,1-1.5,11.13,42.851,42.851,0,0,1-4.22,10.025,41.586,41.586,0,0,1-6.57,8.524,42.756,42.756,0,0,1-8.5,6.6A41.5,41.5,0,0,1,130.557.255a41.333,41.333,0,0,1-11.158,1.5,41.026,41.026,0,0,1-11.13-1.5A42.14,42.14,0,0,1,98.243-3.993a42.4,42.4,0,0,1-8.524-6.6,42.4,42.4,0,0,1-6.6-8.524,42.14,42.14,0,0,1-4.248-10.025,41.026,41.026,0,0,1-1.5-11.13,41.333,41.333,0,0,1,1.5-11.158A41.5,41.5,0,0,1,83.12-61.455a42.756,42.756,0,0,1,6.6-8.5,41.586,41.586,0,0,1,8.524-6.57,42.851,42.851,0,0,1,10.025-4.22,41.026,41.026,0,0,1,11.13-1.5,41.333,41.333,0,0,1,11.158,1.5,42.186,42.186,0,0,1,10.025,4.22,41.93,41.93,0,0,1,8.5,6.57,41.93,41.93,0,0,1,6.57,8.5,42.186,42.186,0,0,1,4.22,10.025A41.333,41.333,0,0,1,161.369-40.271Zm-16.143,0a25.122,25.122,0,0,0-2.039-10.054,26.093,26.093,0,0,0-5.522-8.213,26.093,26.093,0,0,0-8.213-5.522A25.122,25.122,0,0,0,119.4-66.1a25.061,25.061,0,0,0-10.082,2.039,26.529,26.529,0,0,0-8.213,5.522,25.854,25.854,0,0,0-5.551,8.213,25.122,25.122,0,0,0-2.039,10.054,24.721,24.721,0,0,0,2.039,10A26.374,26.374,0,0,0,101.1-22.09a26.282,26.282,0,0,0,8.213,5.551A25.061,25.061,0,0,0,119.4-14.5a25.122,25.122,0,0,0,10.054-2.039,25.854,25.854,0,0,0,8.213-5.551,26.623,26.623,0,0,0,5.522-8.185A24.721,24.721,0,0,0,145.227-40.271Zm91.871-.34a40.006,40.006,0,0,1-1.444,10.79,40.083,40.083,0,0,1-4.106,9.686,41.852,41.852,0,0,1-6.344,8.213,40.227,40.227,0,0,1-8.213,6.372,40.606,40.606,0,0,1-9.714,4.106A40.006,40.006,0,0,1,196.486,0H172.018V-81.223h24.469a40.006,40.006,0,0,1,10.79,1.444,40.606,40.606,0,0,1,9.714,4.106A40.228,40.228,0,0,1,225.2-69.3a41.852,41.852,0,0,1,6.344,8.213,40.083,40.083,0,0,1,4.106,9.686A40.006,40.006,0,0,1,237.1-40.611Zm-16.256,0a23.713,23.713,0,0,0-1.9-9.459,24.484,24.484,0,0,0-5.211-7.731,24.791,24.791,0,0,0-7.76-5.239,23.612,23.612,0,0,0-9.487-1.926h-8.1v48.711h8.1a23.916,23.916,0,0,0,9.487-1.9,24.4,24.4,0,0,0,7.76-5.211,24.4,24.4,0,0,0,5.211-7.76A23.916,23.916,0,0,0,220.842-40.611ZM303.537,0H247.859V-81.223h55.678v16.256H264.115v16.256h26.678v16.256H264.115v16.2h39.422Z" transform="translate(-3.115 82.355)" fill="url(#linear-gradient)"/>
</svg>
